G04*
G04 #@! TF.GenerationSoftware,Altium Limited,Altium Designer,26.3.0 (6)*
G04*
G04 Layer_Color=8388736*
%FSLAX44Y44*%
%MOMM*%
G71*
G04*
G04 #@! TF.SameCoordinates,B1B4E18B-4560-4E18-BF29-402D28114D08*
G04*
G04*
G04 #@! TF.FilePolarity,Negative*
G04*
G01*
G75*
%ADD27O,0.5032X2.0032*%
%ADD28O,2.0032X0.5032*%
%ADD29R,1.5032X1.8032*%
%ADD30R,2.4032X3.5032*%
%ADD31R,2.4032X1.2032*%
%ADD32R,1.9032X1.3032*%
%ADD33R,1.2032X1.3032*%
%ADD34R,0.8032X0.7032*%
%ADD35R,1.3032X1.5032*%
%ADD36R,0.9032X1.1032*%
%ADD37C,1.2032*%
%ADD38R,1.2032X1.2032*%
%ADD39R,1.7032X1.7032*%
%ADD40R,2.0532X2.0532*%
%ADD41C,2.0532*%
%ADD42C,1.5032*%
G04:AMPARAMS|DCode=43|XSize=2.1082mm|YSize=1.7272mm|CornerRadius=0mm|HoleSize=0mm|Usage=FLASHONLY|Rotation=180.000|XOffset=0mm|YOffset=0mm|HoleType=Round|Shape=Octagon|*
%AMOCTAGOND43*
4,1,8,-1.0541,0.4318,-1.0541,-0.4318,-0.6223,-0.8636,0.6223,-0.8636,1.0541,-0.4318,1.0541,0.4318,0.6223,0.8636,-0.6223,0.8636,-1.0541,0.4318,0.0*
%
%ADD43OCTAGOND43*%

G04:AMPARAMS|DCode=44|XSize=2.2352mm|YSize=1.7272mm|CornerRadius=0mm|HoleSize=0mm|Usage=FLASHONLY|Rotation=180.000|XOffset=0mm|YOffset=0mm|HoleType=Round|Shape=Octagon|*
%AMOCTAGOND44*
4,1,8,-1.1176,0.4318,-1.1176,-0.4318,-0.6858,-0.8636,0.6858,-0.8636,1.1176,-0.4318,1.1176,0.4318,0.6858,0.8636,-0.6858,0.8636,-1.1176,0.4318,0.0*
%
%ADD44OCTAGOND44*%

%ADD45C,1.7032*%
%ADD46C,0.7112*%
D27*
X283396Y287642D02*
D03*
X338396Y206642D02*
D03*
X288396Y287642D02*
D03*
X333396Y206642D02*
D03*
X283396D02*
D03*
X288396D02*
D03*
X293396D02*
D03*
X298396D02*
D03*
X303396D02*
D03*
X308396D02*
D03*
X313396D02*
D03*
X318396D02*
D03*
X323396D02*
D03*
X328396D02*
D03*
X338396Y287642D02*
D03*
X333396D02*
D03*
X328396D02*
D03*
X323396D02*
D03*
X318396D02*
D03*
X313396D02*
D03*
X308396D02*
D03*
X303396D02*
D03*
X298396D02*
D03*
X293396D02*
D03*
D28*
X351396Y274642D02*
D03*
X270396Y234642D02*
D03*
X351396Y269642D02*
D03*
X270396Y239642D02*
D03*
Y244642D02*
D03*
Y254642D02*
D03*
Y274642D02*
D03*
Y269642D02*
D03*
Y264642D02*
D03*
Y259642D02*
D03*
Y249642D02*
D03*
Y229642D02*
D03*
Y224642D02*
D03*
Y219642D02*
D03*
X351396D02*
D03*
Y224642D02*
D03*
Y229642D02*
D03*
Y234642D02*
D03*
Y239642D02*
D03*
Y244642D02*
D03*
Y249642D02*
D03*
Y254642D02*
D03*
Y259642D02*
D03*
Y264642D02*
D03*
D29*
X242004Y439900D02*
D03*
Y415008D02*
D03*
X261004D02*
D03*
Y439900D02*
D03*
D30*
X190036Y420088D02*
D03*
D31*
X132036D02*
D03*
Y443088D02*
D03*
Y397088D02*
D03*
D32*
X100882Y415732D02*
D03*
Y442732D02*
D03*
X79292D02*
D03*
X57702D02*
D03*
X79292Y415732D02*
D03*
X57702Y415732D02*
D03*
D33*
X456320Y339090D02*
D03*
Y389890D02*
D03*
Y364490D02*
D03*
Y415290D02*
D03*
Y262890D02*
D03*
Y237490D02*
D03*
Y313690D02*
D03*
Y288290D02*
D03*
Y186690D02*
D03*
Y161290D02*
D03*
Y212090D02*
D03*
Y110490D02*
D03*
Y85090D02*
D03*
Y135890D02*
D03*
Y34290D02*
D03*
Y59690D02*
D03*
X75556Y363474D02*
D03*
Y236474D02*
D03*
Y312674D02*
D03*
Y338074D02*
D03*
Y261874D02*
D03*
Y287274D02*
D03*
Y185674D02*
D03*
Y160274D02*
D03*
Y211074D02*
D03*
Y109474D02*
D03*
Y134874D02*
D03*
Y58674D02*
D03*
Y84074D02*
D03*
Y33274D02*
D03*
X473320Y313690D02*
D03*
X58556Y84074D02*
D03*
Y134874D02*
D03*
Y236474D02*
D03*
X473320Y85090D02*
D03*
Y34290D02*
D03*
X58556Y33274D02*
D03*
Y160274D02*
D03*
X473320Y364490D02*
D03*
Y212090D02*
D03*
X58556Y58674D02*
D03*
Y185674D02*
D03*
X473320Y262890D02*
D03*
X58556Y109474D02*
D03*
X473320Y415290D02*
D03*
Y288290D02*
D03*
Y135890D02*
D03*
X58556Y261874D02*
D03*
Y312674D02*
D03*
Y338074D02*
D03*
Y363474D02*
D03*
X473320Y339090D02*
D03*
X58556Y211074D02*
D03*
X473320Y389890D02*
D03*
Y237490D02*
D03*
Y161290D02*
D03*
Y110490D02*
D03*
Y59690D02*
D03*
Y186690D02*
D03*
X58556Y287274D02*
D03*
D34*
X224588Y243332D02*
D03*
X222588Y192532D02*
D03*
X214588Y243332D02*
D03*
X232588Y192532D02*
D03*
D35*
Y229432D02*
D03*
X214588Y206432D02*
D03*
Y229432D02*
D03*
X232588Y206432D02*
D03*
D36*
Y180226D02*
D03*
X247588D02*
D03*
D37*
X299466Y374142D02*
D03*
X312166D02*
D03*
X286766D02*
D03*
X261366D02*
D03*
X248666D02*
D03*
D38*
X324866D02*
D03*
X235966D02*
D03*
D39*
X35858Y441932D02*
D03*
D40*
X188028Y154432D02*
D03*
D41*
Y205232D02*
D03*
D42*
X223198Y303282D02*
D03*
Y272282D02*
D03*
D43*
X501904Y313690D02*
D03*
Y85090D02*
D03*
Y34290D02*
D03*
Y364490D02*
D03*
Y212090D02*
D03*
Y262890D02*
D03*
Y415290D02*
D03*
Y288290D02*
D03*
Y135890D02*
D03*
Y339090D02*
D03*
Y389890D02*
D03*
Y237490D02*
D03*
Y161290D02*
D03*
Y110490D02*
D03*
Y59690D02*
D03*
Y186690D02*
D03*
D44*
X30734Y84074D02*
D03*
Y134874D02*
D03*
Y236474D02*
D03*
Y33274D02*
D03*
Y160274D02*
D03*
Y58674D02*
D03*
Y185674D02*
D03*
Y109474D02*
D03*
Y261874D02*
D03*
Y312674D02*
D03*
Y338074D02*
D03*
Y363474D02*
D03*
Y211074D02*
D03*
Y287274D02*
D03*
D45*
X35858Y416532D02*
D03*
D46*
X436372Y24892D02*
D03*
X422656Y186690D02*
D03*
X326136Y356362D02*
D03*
X392176Y272542D02*
D03*
X295656Y326122D02*
D03*
X308596Y313182D02*
D03*
X315976Y345719D02*
D03*
X356616Y305079D02*
D03*
X422656Y262890D02*
D03*
X436372Y253492D02*
D03*
Y355092D02*
D03*
X422656Y339090D02*
D03*
X436372Y278892D02*
D03*
Y329692D02*
D03*
Y228092D02*
D03*
Y405892D02*
D03*
Y202692D02*
D03*
X96266Y277876D02*
D03*
Y303276D02*
D03*
Y328676D02*
D03*
Y23876D02*
D03*
Y176276D02*
D03*
Y150876D02*
D03*
X95303Y124888D02*
D03*
X96266Y100076D02*
D03*
Y49276D02*
D03*
Y74676D02*
D03*
Y201676D02*
D03*
Y252476D02*
D03*
Y227076D02*
D03*
X436372Y380492D02*
D03*
Y304292D02*
D03*
Y177292D02*
D03*
Y151892D02*
D03*
Y126492D02*
D03*
Y101092D02*
D03*
Y75692D02*
D03*
Y50292D02*
D03*
X96266Y354076D02*
D03*
X373638Y287782D02*
D03*
Y274642D02*
D03*
X351286Y183642D02*
D03*
X338396D02*
D03*
X211372Y420342D02*
D03*
X283396Y308102D02*
D03*
X249178Y234642D02*
D03*
X422656Y288290D02*
D03*
Y313690D02*
D03*
Y212090D02*
D03*
Y135890D02*
D03*
X423139Y161290D02*
D03*
X109982Y185674D02*
D03*
Y134874D02*
D03*
Y84074D02*
D03*
Y58674D02*
D03*
Y33274D02*
D03*
Y287274D02*
D03*
Y261874D02*
D03*
Y236474D02*
D03*
Y109474D02*
D03*
X422656Y415290D02*
D03*
Y389890D02*
D03*
Y364490D02*
D03*
Y237490D02*
D03*
Y110490D02*
D03*
Y85090D02*
D03*
Y59690D02*
D03*
Y34290D02*
D03*
X109982Y363474D02*
D03*
Y338074D02*
D03*
Y312674D02*
D03*
Y211074D02*
D03*
Y160274D02*
D03*
X242004Y394790D02*
D03*
X332490Y269642D02*
D03*
X288396Y269240D02*
D03*
X292358Y239642D02*
D03*
X328680Y222758D02*
D03*
X150412Y443456D02*
D03*
X197870Y288290D02*
D03*
X236986Y243078D02*
D03*
X206760Y192532D02*
D03*
X208352Y154432D02*
D03*
X252988Y242062D02*
D03*
M02*
