G04*
G04 #@! TF.GenerationSoftware,Altium Limited,Altium Designer,26.3.0 (6)*
G04*
G04 Layer_Physical_Order=4*
G04 Layer_Color=16711680*
%FSLAX44Y44*%
%MOMM*%
G71*
G04*
G04 #@! TF.SameCoordinates,B1B4E18B-4560-4E18-BF29-402D28114D08*
G04*
G04*
G04 #@! TF.FilePolarity,Positive*
G04*
G01*
G75*
%ADD23R,1.0000X1.1000*%
%ADD47C,0.2997*%
%ADD48C,0.8128*%
%ADD51C,0.4064*%
%ADD52C,1.0000*%
%ADD53R,1.0000X1.0000*%
%ADD54R,1.5000X1.5000*%
%ADD55R,1.8500X1.8500*%
%ADD56C,1.8500*%
%ADD57C,1.3000*%
G04:AMPARAMS|DCode=58|XSize=1.905mm|YSize=1.524mm|CornerRadius=0mm|HoleSize=0mm|Usage=FLASHONLY|Rotation=180.000|XOffset=0mm|YOffset=0mm|HoleType=Round|Shape=Octagon|*
%AMOCTAGOND58*
4,1,8,-0.9525,0.3810,-0.9525,-0.3810,-0.5715,-0.7620,0.5715,-0.7620,0.9525,-0.3810,0.9525,0.3810,0.5715,0.7620,-0.5715,0.7620,-0.9525,0.3810,0.0*
%
%ADD58OCTAGOND58*%

G04:AMPARAMS|DCode=59|XSize=2.032mm|YSize=1.524mm|CornerRadius=0mm|HoleSize=0mm|Usage=FLASHONLY|Rotation=180.000|XOffset=0mm|YOffset=0mm|HoleType=Round|Shape=Octagon|*
%AMOCTAGOND59*
4,1,8,-1.0160,0.3810,-1.0160,-0.3810,-0.6350,-0.7620,0.6350,-0.7620,1.0160,-0.3810,1.0160,0.3810,0.6350,0.7620,-0.6350,0.7620,-1.0160,0.3810,0.0*
%
%ADD59OCTAGOND59*%

%ADD60C,1.5000*%
%ADD61C,0.5080*%
%ADD69R,0.8000X0.9000*%
%ADD70R,0.9000X0.8000*%
%ADD71R,0.5000X0.6000*%
G36*
X528210Y5698D02*
X5698D01*
X5697Y462425D01*
X528210D01*
Y5698D01*
D02*
G37*
%LPC*%
G36*
X508381Y424434D02*
X495427D01*
X491981Y420988D01*
X479844D01*
Y422314D01*
X466796D01*
Y408266D01*
X479844D01*
Y409593D01*
X491981D01*
X495427Y406146D01*
X508381D01*
X512953Y410718D01*
Y419862D01*
X508381Y424434D01*
D02*
G37*
G36*
X211372Y424485D02*
X209786Y424170D01*
X208442Y423272D01*
X207544Y421927D01*
X207229Y420342D01*
X207544Y418756D01*
X208442Y417412D01*
X209786Y416514D01*
X211372Y416198D01*
X212958Y416514D01*
X214302Y417412D01*
X215200Y418756D01*
X215516Y420342D01*
X215200Y421927D01*
X214302Y423272D01*
X212958Y424170D01*
X211372Y424485D01*
D02*
G37*
G36*
X35858Y425634D02*
X33503Y425323D01*
X31307Y424414D01*
X29422Y422968D01*
X27976Y421083D01*
X27067Y418887D01*
X26756Y416532D01*
X27067Y414176D01*
X27976Y411981D01*
X29422Y410096D01*
X31307Y408649D01*
X33503Y407740D01*
X35858Y407430D01*
X38214Y407740D01*
X40409Y408649D01*
X42294Y410096D01*
X43741Y411981D01*
X44650Y414176D01*
X44960Y416532D01*
X44650Y418887D01*
X43741Y421083D01*
X42294Y422968D01*
X40409Y424414D01*
X38214Y425323D01*
X35858Y425634D01*
D02*
G37*
G36*
X462844Y422314D02*
X449796D01*
Y416061D01*
X445324Y411590D01*
X436372D01*
X434192Y411156D01*
X432343Y409921D01*
X431108Y408072D01*
X430675Y405892D01*
X431108Y403712D01*
X432343Y401863D01*
X434192Y400628D01*
X436372Y400195D01*
X447684D01*
X449864Y400628D01*
X451713Y401863D01*
X458115Y408266D01*
X462844D01*
Y422314D01*
D02*
G37*
G36*
X508381Y399034D02*
X495427D01*
X491981Y395588D01*
X479844D01*
Y396914D01*
X466796D01*
Y382866D01*
X479844D01*
Y384193D01*
X491981D01*
X495427Y380746D01*
X508381D01*
X512953Y385318D01*
Y394462D01*
X508381Y399034D01*
D02*
G37*
G36*
X248666Y380722D02*
X246963Y380498D01*
X245376Y379841D01*
X245030Y379575D01*
X242490Y380666D01*
Y380666D01*
X229442D01*
Y367618D01*
X242490D01*
Y367618D01*
X245030Y368709D01*
X245376Y368443D01*
X246963Y367786D01*
X248666Y367562D01*
X250369Y367786D01*
X251956Y368443D01*
X253319Y369489D01*
X254365Y370852D01*
X255022Y372439D01*
X255246Y374142D01*
X255022Y375845D01*
X254365Y377432D01*
X253319Y378795D01*
X251956Y379841D01*
X250369Y380498D01*
X248666Y380722D01*
D02*
G37*
G36*
X312166D02*
X310463Y380498D01*
X308876Y379841D01*
X307513Y378795D01*
X307343Y378573D01*
X307243Y378521D01*
X304389D01*
X304289Y378573D01*
X304119Y378795D01*
X302756Y379841D01*
X301169Y380498D01*
X299466Y380722D01*
X297763Y380498D01*
X296176Y379841D01*
X294813Y378795D01*
X293767Y377432D01*
X293110Y375845D01*
X292886Y374142D01*
X293110Y372439D01*
X293767Y370852D01*
X294813Y369489D01*
X296176Y368443D01*
X297763Y367786D01*
X299466Y367562D01*
X301169Y367786D01*
X302756Y368443D01*
X304119Y369489D01*
X304289Y369711D01*
X304389Y369763D01*
X307243D01*
X307343Y369711D01*
X307513Y369489D01*
X308876Y368443D01*
X310463Y367786D01*
X312166Y367562D01*
X313869Y367786D01*
X315456Y368443D01*
X315802Y368709D01*
X318342Y367618D01*
Y367618D01*
X331390D01*
Y380666D01*
X318342D01*
Y380666D01*
X315802Y379575D01*
X315456Y379841D01*
X313869Y380498D01*
X312166Y380722D01*
D02*
G37*
G36*
X462844Y396914D02*
X449796D01*
Y390661D01*
X445324Y386189D01*
X436372D01*
X434192Y385756D01*
X432343Y384521D01*
X431108Y382672D01*
X430675Y380492D01*
X431108Y378312D01*
X432343Y376463D01*
X434192Y375228D01*
X436372Y374795D01*
X447684D01*
X449864Y375228D01*
X451713Y376463D01*
X458115Y382866D01*
X462844D01*
Y396914D01*
D02*
G37*
G36*
X508381Y373634D02*
X495427D01*
X491981Y370187D01*
X479844D01*
Y371514D01*
X466796D01*
Y357466D01*
X479844D01*
Y358792D01*
X491981D01*
X495427Y355346D01*
X508381D01*
X512953Y359918D01*
Y369062D01*
X508381Y373634D01*
D02*
G37*
G36*
X37846Y372618D02*
X23622D01*
X19050Y368046D01*
Y358902D01*
X23622Y354330D01*
X37846D01*
X41293Y357776D01*
X52032D01*
Y356450D01*
X65080D01*
Y370498D01*
X52032D01*
Y369171D01*
X41293D01*
X37846Y372618D01*
D02*
G37*
G36*
X462844Y371514D02*
X449796D01*
Y365261D01*
X445324Y360789D01*
X436372D01*
X434192Y360356D01*
X432343Y359121D01*
X431108Y357272D01*
X430675Y355092D01*
X431108Y352912D01*
X432343Y351063D01*
X434192Y349828D01*
X436372Y349394D01*
X447684D01*
X449864Y349828D01*
X451713Y351063D01*
X458115Y357466D01*
X462844D01*
Y371514D01*
D02*
G37*
G36*
X82080Y370498D02*
X69032D01*
Y356450D01*
X74523D01*
X80925Y350047D01*
X82774Y348812D01*
X84954Y348378D01*
X96266D01*
X98446Y348812D01*
X100295Y350047D01*
X101530Y351896D01*
X101964Y354076D01*
X101530Y356256D01*
X100295Y358105D01*
X98446Y359340D01*
X96266Y359773D01*
X87314D01*
X82080Y365007D01*
Y370498D01*
D02*
G37*
G36*
X508381Y348234D02*
X495427D01*
X491981Y344787D01*
X479844D01*
Y346114D01*
X466796D01*
Y332066D01*
X479844D01*
Y333392D01*
X491981D01*
X495427Y329946D01*
X508381D01*
X512953Y334518D01*
Y343662D01*
X508381Y348234D01*
D02*
G37*
G36*
X37846Y347218D02*
X23622D01*
X19050Y342646D01*
Y333502D01*
X23622Y328930D01*
X37846D01*
X41293Y332377D01*
X52032D01*
Y331050D01*
X65080D01*
Y345098D01*
X52032D01*
Y343772D01*
X41293D01*
X37846Y347218D01*
D02*
G37*
G36*
X462844Y346114D02*
X449796D01*
Y339861D01*
X445324Y335390D01*
X436372D01*
X434192Y334956D01*
X432343Y333721D01*
X431108Y331872D01*
X430675Y329692D01*
X431108Y327512D01*
X432343Y325663D01*
X434192Y324428D01*
X436372Y323994D01*
X447684D01*
X449864Y324428D01*
X451713Y325663D01*
X458115Y332066D01*
X462844D01*
Y346114D01*
D02*
G37*
G36*
X82080Y345098D02*
X69032D01*
Y331050D01*
X74523D01*
X80925Y324647D01*
X82774Y323412D01*
X84954Y322979D01*
X96266D01*
X98446Y323412D01*
X100295Y324647D01*
X101530Y326496D01*
X101964Y328676D01*
X101530Y330856D01*
X100295Y332705D01*
X98446Y333940D01*
X96266Y334374D01*
X87314D01*
X82080Y339607D01*
Y345098D01*
D02*
G37*
G36*
X508381Y322834D02*
X495427D01*
X491981Y319387D01*
X479844D01*
Y320714D01*
X466796D01*
Y306666D01*
X479844D01*
Y307992D01*
X491981D01*
X495427Y304546D01*
X508381D01*
X512953Y309118D01*
Y318262D01*
X508381Y322834D01*
D02*
G37*
G36*
X295656Y330266D02*
X294070Y329950D01*
X292726Y329052D01*
X291828Y327708D01*
X291512Y326122D01*
X291828Y324536D01*
X292726Y323192D01*
X294070Y322294D01*
X295388Y322032D01*
X304506Y312914D01*
X304768Y311596D01*
X305666Y310252D01*
X307010Y309354D01*
X308596Y309038D01*
X310182Y309354D01*
X311526Y310252D01*
X312424Y311596D01*
X312740Y313182D01*
X312424Y314768D01*
X311526Y316112D01*
X310182Y317010D01*
X308864Y317272D01*
X299746Y326390D01*
X299484Y327708D01*
X298586Y329052D01*
X297242Y329950D01*
X295656Y330266D01*
D02*
G37*
G36*
X223198Y311375D02*
X221103Y311099D01*
X219151Y310291D01*
X217475Y309005D01*
X216189Y307328D01*
X216015Y306908D01*
X211102D01*
Y307806D01*
X203054D01*
Y298758D01*
X211102D01*
Y299656D01*
X216015D01*
X216189Y299235D01*
X217475Y297559D01*
X219151Y296273D01*
X221103Y295464D01*
X223198Y295189D01*
X225293Y295464D01*
X227245Y296273D01*
X228921Y297559D01*
X230207Y299235D01*
X231015Y301187D01*
X231291Y303282D01*
X231015Y305377D01*
X230207Y307328D01*
X228921Y309005D01*
X227245Y310291D01*
X225293Y311099D01*
X223198Y311375D01*
D02*
G37*
G36*
X37846Y321818D02*
X23622D01*
X19050Y317246D01*
Y308102D01*
X23622Y303530D01*
X37846D01*
X41293Y306977D01*
X52032D01*
Y305650D01*
X65080D01*
Y319698D01*
X52032D01*
Y318372D01*
X41293D01*
X37846Y321818D01*
D02*
G37*
G36*
X315976Y349863D02*
X314390Y349548D01*
X313046Y348649D01*
X312148Y347305D01*
X311832Y345719D01*
X312148Y344134D01*
X313046Y342789D01*
X314390Y341891D01*
X315708Y341629D01*
X352526Y304811D01*
X352788Y303494D01*
X353686Y302149D01*
X355030Y301251D01*
X356616Y300936D01*
X358202Y301251D01*
X359546Y302149D01*
X360444Y303494D01*
X360760Y305079D01*
X360444Y306665D01*
X359546Y308009D01*
X358202Y308908D01*
X356884Y309170D01*
X320066Y345987D01*
X319804Y347305D01*
X318906Y348649D01*
X317562Y349548D01*
X315976Y349863D01*
D02*
G37*
G36*
X462844Y320714D02*
X449796D01*
Y314461D01*
X445324Y309989D01*
X436372D01*
X434192Y309556D01*
X432343Y308321D01*
X431108Y306472D01*
X430675Y304292D01*
X431108Y302112D01*
X432343Y300263D01*
X434192Y299028D01*
X436372Y298594D01*
X447684D01*
X449864Y299028D01*
X451713Y300263D01*
X458115Y306666D01*
X462844D01*
Y320714D01*
D02*
G37*
G36*
X82080Y319698D02*
X69032D01*
Y305650D01*
X74523D01*
X80925Y299247D01*
X82774Y298012D01*
X84954Y297579D01*
X96266D01*
X98446Y298012D01*
X100295Y299247D01*
X101530Y301096D01*
X101964Y303276D01*
X101530Y305456D01*
X100295Y307305D01*
X98446Y308540D01*
X96266Y308974D01*
X87314D01*
X82080Y314207D01*
Y319698D01*
D02*
G37*
G36*
X508381Y297434D02*
X495427D01*
X491981Y293988D01*
X479844D01*
Y295314D01*
X466796D01*
Y281266D01*
X479844D01*
Y282593D01*
X491981D01*
X495427Y279146D01*
X508381D01*
X512953Y283718D01*
Y292862D01*
X508381Y297434D01*
D02*
G37*
G36*
X283396Y312246D02*
X281810Y311930D01*
X280466Y311032D01*
X279568Y309688D01*
X279252Y308102D01*
X279568Y306516D01*
X279770Y306213D01*
Y301716D01*
X277372D01*
Y290668D01*
X289420D01*
Y301716D01*
X287022D01*
Y306213D01*
X287224Y306516D01*
X287540Y308102D01*
X287224Y309688D01*
X286326Y311032D01*
X284982Y311930D01*
X283396Y312246D01*
D02*
G37*
G36*
X363992Y293806D02*
X352944D01*
Y283206D01*
X352944Y281758D01*
X352944Y281758D01*
Y280666D01*
X352944D01*
X352944Y279218D01*
Y268618D01*
X363992D01*
Y271016D01*
X371749D01*
X372052Y270814D01*
X373638Y270498D01*
X375224Y270814D01*
X376568Y271712D01*
X377466Y273056D01*
X377782Y274642D01*
X377466Y276228D01*
X376568Y277572D01*
X375224Y278470D01*
X373638Y278786D01*
X372052Y278470D01*
X371749Y278268D01*
X364555D01*
Y284156D01*
X371749D01*
X372052Y283954D01*
X373638Y283638D01*
X375224Y283954D01*
X376568Y284852D01*
X377056Y285582D01*
X377087Y285603D01*
X377755Y286603D01*
X377990Y287782D01*
X377755Y288961D01*
X377087Y289961D01*
X377056Y289982D01*
X376568Y290712D01*
X375224Y291610D01*
X373638Y291926D01*
X372052Y291610D01*
X371749Y291408D01*
X363992D01*
Y293806D01*
D02*
G37*
G36*
X37846Y296418D02*
X23622D01*
X19050Y291846D01*
Y282702D01*
X23622Y278130D01*
X37846D01*
X41293Y281576D01*
X52032D01*
Y280250D01*
X65080D01*
Y294298D01*
X52032D01*
Y292971D01*
X41293D01*
X37846Y296418D01*
D02*
G37*
G36*
X223198Y280375D02*
X221103Y280099D01*
X219151Y279291D01*
X217475Y278005D01*
X216189Y276329D01*
X216015Y275908D01*
X211102D01*
Y276806D01*
X203054D01*
Y267758D01*
X211102D01*
Y268656D01*
X216015D01*
X216189Y268235D01*
X217475Y266559D01*
X219151Y265273D01*
X221103Y264464D01*
X223198Y264189D01*
X225293Y264464D01*
X227245Y265273D01*
X228921Y266559D01*
X230207Y268235D01*
X231015Y270187D01*
X231291Y272282D01*
X231015Y274377D01*
X230207Y276329D01*
X228921Y278005D01*
X227245Y279291D01*
X225293Y280099D01*
X223198Y280375D01*
D02*
G37*
G36*
X462844Y295314D02*
X449796D01*
Y289061D01*
X445324Y284590D01*
X436372D01*
X434192Y284156D01*
X432343Y282921D01*
X431108Y281072D01*
X430675Y278892D01*
X431108Y276712D01*
X432343Y274863D01*
X434192Y273628D01*
X436372Y273195D01*
X447684D01*
X449864Y273628D01*
X451713Y274863D01*
X458115Y281266D01*
X462844D01*
Y295314D01*
D02*
G37*
G36*
X82080Y294298D02*
X69032D01*
Y280250D01*
X74523D01*
X80925Y273847D01*
X82774Y272612D01*
X84954Y272178D01*
X96266D01*
X98446Y272612D01*
X100295Y273847D01*
X101530Y275696D01*
X101964Y277876D01*
X101530Y280056D01*
X100295Y281905D01*
X98446Y283140D01*
X96266Y283573D01*
X87314D01*
X82080Y288807D01*
Y294298D01*
D02*
G37*
G36*
X508381Y272034D02*
X495427D01*
X491981Y268587D01*
X479844D01*
Y269914D01*
X466796D01*
Y255866D01*
X479844D01*
Y257192D01*
X491981D01*
X495427Y253746D01*
X508381D01*
X512953Y258318D01*
Y267462D01*
X508381Y272034D01*
D02*
G37*
G36*
X326136Y360506D02*
X324550Y360190D01*
X323206Y359292D01*
X322308Y357948D01*
X321992Y356362D01*
X322308Y354776D01*
X323206Y353432D01*
X324550Y352534D01*
X325868Y352272D01*
X389094Y289046D01*
Y275245D01*
X388348Y274128D01*
X388032Y272542D01*
X388348Y270956D01*
X389246Y269612D01*
X390590Y268714D01*
X392176Y268398D01*
X393762Y268714D01*
X395106Y269612D01*
X396004Y270956D01*
X396320Y272542D01*
X396004Y274128D01*
X395258Y275245D01*
Y290322D01*
X395023Y291501D01*
X394355Y292501D01*
X330226Y356630D01*
X329964Y357948D01*
X329066Y359292D01*
X327722Y360190D01*
X326136Y360506D01*
D02*
G37*
G36*
X37846Y271018D02*
X23622D01*
X19050Y266446D01*
Y257302D01*
X23622Y252730D01*
X37846D01*
X41293Y256176D01*
X52032D01*
Y254850D01*
X65080D01*
Y268898D01*
X52032D01*
Y267572D01*
X41293D01*
X37846Y271018D01*
D02*
G37*
G36*
X269220Y254322D02*
X258172D01*
Y252038D01*
X255528D01*
X255528Y252038D01*
X254140Y251762D01*
X252964Y250976D01*
X252964Y250976D01*
X251083Y249094D01*
X247424Y252754D01*
X246247Y253540D01*
X244860Y253816D01*
X244860Y253816D01*
X210316D01*
X210316Y253816D01*
X208929Y253540D01*
X207752Y252754D01*
X207752Y252754D01*
X185654Y230656D01*
X184868Y229479D01*
X184592Y228092D01*
X184592Y228092D01*
Y215471D01*
X182595Y214643D01*
X180344Y212916D01*
X178617Y210665D01*
X177531Y208044D01*
X177161Y205232D01*
X177531Y202419D01*
X178617Y199799D01*
X180344Y197548D01*
X182595Y195821D01*
X185215Y194735D01*
X188028Y194365D01*
X190840Y194735D01*
X193461Y195821D01*
X195712Y197548D01*
X197439Y199799D01*
X198525Y202419D01*
X198895Y205232D01*
X198525Y208044D01*
X197439Y210665D01*
X195712Y212916D01*
X193461Y214643D01*
X191844Y215313D01*
Y226590D01*
X211818Y246564D01*
X243358D01*
X248652Y241271D01*
X248434Y239547D01*
X247592Y238470D01*
X246248Y237572D01*
X245350Y236228D01*
X245034Y234642D01*
X245350Y233056D01*
X246248Y231712D01*
X247592Y230814D01*
X249178Y230498D01*
X250764Y230814D01*
X251067Y231016D01*
X257880D01*
Y221996D01*
X258172Y220531D01*
Y215972D01*
X269220D01*
Y221717D01*
X269275Y221996D01*
Y234642D01*
X269220Y234921D01*
Y240666D01*
X269220D01*
Y242274D01*
X269220D01*
Y254322D01*
D02*
G37*
G36*
X462844Y269914D02*
X449796D01*
Y263661D01*
X445324Y259189D01*
X436372D01*
X434192Y258756D01*
X432343Y257521D01*
X431108Y255672D01*
X430675Y253492D01*
X431108Y251312D01*
X432343Y249463D01*
X434192Y248228D01*
X436372Y247794D01*
X447684D01*
X449864Y248228D01*
X451713Y249463D01*
X458115Y255866D01*
X462844D01*
Y269914D01*
D02*
G37*
G36*
X82080Y268898D02*
X69032D01*
Y254850D01*
X74523D01*
X80925Y248447D01*
X82774Y247212D01*
X84954Y246779D01*
X96266D01*
X98446Y247212D01*
X100295Y248447D01*
X101530Y250296D01*
X101964Y252476D01*
X101530Y254656D01*
X100295Y256505D01*
X98446Y257740D01*
X96266Y258174D01*
X87314D01*
X82080Y263407D01*
Y268898D01*
D02*
G37*
G36*
X508381Y246634D02*
X495427D01*
X491981Y243188D01*
X479844D01*
Y244514D01*
X466796D01*
Y230466D01*
X479844D01*
Y231793D01*
X491981D01*
X495427Y228346D01*
X508381D01*
X512953Y232918D01*
Y242062D01*
X508381Y246634D01*
D02*
G37*
G36*
X37846Y245618D02*
X23622D01*
X19050Y241046D01*
Y231902D01*
X23622Y227330D01*
X37846D01*
X41293Y230777D01*
X52032D01*
Y229450D01*
X65080D01*
Y243498D01*
X52032D01*
Y242171D01*
X41293D01*
X37846Y245618D01*
D02*
G37*
G36*
X462844Y244514D02*
X449796D01*
Y238261D01*
X445324Y233790D01*
X436372D01*
X434192Y233356D01*
X432343Y232121D01*
X431108Y230272D01*
X430675Y228092D01*
X431108Y225912D01*
X432343Y224063D01*
X434192Y222828D01*
X436372Y222395D01*
X447684D01*
X449864Y222828D01*
X451713Y224063D01*
X458115Y230466D01*
X462844D01*
Y244514D01*
D02*
G37*
G36*
X82080Y243498D02*
X69032D01*
Y229450D01*
X74523D01*
X80925Y223047D01*
X82774Y221812D01*
X84954Y221378D01*
X96266D01*
X98446Y221812D01*
X100295Y223047D01*
X101530Y224896D01*
X101964Y227076D01*
X101530Y229256D01*
X100295Y231105D01*
X98446Y232340D01*
X96266Y232773D01*
X87314D01*
X82080Y238007D01*
Y243498D01*
D02*
G37*
G36*
X508381Y221234D02*
X495427D01*
X491981Y217787D01*
X479844D01*
Y219114D01*
X466796D01*
Y205066D01*
X479844D01*
Y206392D01*
X491981D01*
X495427Y202946D01*
X508381D01*
X512953Y207518D01*
Y216662D01*
X508381Y221234D01*
D02*
G37*
G36*
X37846Y220218D02*
X23622D01*
X19050Y215646D01*
Y206502D01*
X23622Y201930D01*
X37846D01*
X41293Y205376D01*
X52032D01*
Y204050D01*
X65080D01*
Y218098D01*
X52032D01*
Y216772D01*
X41293D01*
X37846Y220218D01*
D02*
G37*
G36*
X462844Y219114D02*
X449796D01*
Y212861D01*
X445324Y208389D01*
X436372D01*
X434192Y207956D01*
X432343Y206721D01*
X431108Y204872D01*
X430675Y202692D01*
X431108Y200512D01*
X432343Y198663D01*
X434192Y197428D01*
X436372Y196994D01*
X447684D01*
X449864Y197428D01*
X451713Y198663D01*
X458115Y205066D01*
X462844D01*
Y219114D01*
D02*
G37*
G36*
X82080Y218098D02*
X69032D01*
Y204050D01*
X74523D01*
X80925Y197647D01*
X82774Y196412D01*
X84954Y195979D01*
X96266D01*
X98446Y196412D01*
X100295Y197647D01*
X101530Y199496D01*
X101964Y201676D01*
X101530Y203856D01*
X100295Y205705D01*
X98446Y206940D01*
X96266Y207374D01*
X87314D01*
X82080Y212607D01*
Y218098D01*
D02*
G37*
G36*
X508381Y195834D02*
X495427D01*
X491981Y192388D01*
X479844D01*
Y193714D01*
X466796D01*
Y179666D01*
X479844D01*
Y180993D01*
X491981D01*
X495427Y177546D01*
X508381D01*
X512953Y182118D01*
Y191262D01*
X508381Y195834D01*
D02*
G37*
G36*
X351096Y205199D02*
X338396D01*
X338228Y205166D01*
X332372D01*
Y194118D01*
X334770D01*
Y185531D01*
X334568Y185228D01*
X334252Y183642D01*
X334568Y182056D01*
X335466Y180712D01*
X336810Y179814D01*
X338396Y179498D01*
X339982Y179814D01*
X341326Y180712D01*
X342224Y182056D01*
X342539Y183642D01*
X342224Y185228D01*
X342022Y185531D01*
Y193804D01*
X347660D01*
Y185531D01*
X347458Y185228D01*
X347142Y183642D01*
X347458Y182056D01*
X348356Y180712D01*
X349700Y179814D01*
X351286Y179498D01*
X352872Y179814D01*
X354216Y180712D01*
X355114Y182056D01*
X355430Y183642D01*
X355114Y185228D01*
X354912Y185531D01*
Y194118D01*
X357310D01*
Y205166D01*
X351264D01*
X351096Y205199D01*
D02*
G37*
G36*
X37846Y194818D02*
X23622D01*
X19050Y190246D01*
Y181102D01*
X23622Y176530D01*
X37846D01*
X41293Y179977D01*
X52032D01*
Y178650D01*
X65080D01*
Y192698D01*
X52032D01*
Y191371D01*
X41293D01*
X37846Y194818D01*
D02*
G37*
G36*
X462844Y193714D02*
X449796D01*
Y187461D01*
X445324Y182990D01*
X436372D01*
X434192Y182556D01*
X432343Y181321D01*
X431108Y179472D01*
X430675Y177292D01*
X431108Y175112D01*
X432343Y173263D01*
X434192Y172028D01*
X436372Y171595D01*
X447684D01*
X449864Y172028D01*
X451713Y173263D01*
X458115Y179666D01*
X462844D01*
Y193714D01*
D02*
G37*
G36*
X82080Y192698D02*
X69032D01*
Y178650D01*
X74523D01*
X80925Y172247D01*
X82774Y171012D01*
X84954Y170578D01*
X96266D01*
X98446Y171012D01*
X100295Y172247D01*
X101530Y174096D01*
X101964Y176276D01*
X101530Y178456D01*
X100295Y180305D01*
X98446Y181540D01*
X96266Y181973D01*
X87314D01*
X82080Y187207D01*
Y192698D01*
D02*
G37*
G36*
X508381Y170434D02*
X495427D01*
X491981Y166987D01*
X479844D01*
Y168314D01*
X466796D01*
Y154266D01*
X479844D01*
Y155592D01*
X491981D01*
X495427Y152146D01*
X508381D01*
X512953Y156718D01*
Y165862D01*
X508381Y170434D01*
D02*
G37*
G36*
X37846Y169418D02*
X23622D01*
X19050Y164846D01*
Y155702D01*
X23622Y151130D01*
X37846D01*
X41293Y154577D01*
X52032D01*
Y153250D01*
X65080D01*
Y167298D01*
X52032D01*
Y165972D01*
X41293D01*
X37846Y169418D01*
D02*
G37*
G36*
X462844Y168314D02*
X449796D01*
Y162061D01*
X445324Y157590D01*
X436372D01*
X434192Y157156D01*
X432343Y155921D01*
X431108Y154072D01*
X430675Y151892D01*
X431108Y149712D01*
X432343Y147863D01*
X434192Y146628D01*
X436372Y146194D01*
X447684D01*
X449864Y146628D01*
X451713Y147863D01*
X458115Y154266D01*
X462844D01*
Y168314D01*
D02*
G37*
G36*
X82080Y167298D02*
X69032D01*
Y153250D01*
X74523D01*
X80925Y146847D01*
X82774Y145612D01*
X84954Y145178D01*
X96266D01*
X98446Y145612D01*
X100295Y146847D01*
X101530Y148696D01*
X101964Y150876D01*
X101530Y153056D01*
X100295Y154905D01*
X98446Y156140D01*
X96266Y156573D01*
X87314D01*
X82080Y161807D01*
Y167298D01*
D02*
G37*
G36*
X508381Y145034D02*
X495427D01*
X491981Y141587D01*
X479844D01*
Y142914D01*
X466796D01*
Y128866D01*
X479844D01*
Y130192D01*
X491981D01*
X495427Y126746D01*
X508381D01*
X512953Y131318D01*
Y140462D01*
X508381Y145034D01*
D02*
G37*
G36*
X37846Y144018D02*
X23622D01*
X19050Y139446D01*
Y130302D01*
X23622Y125730D01*
X37846D01*
X41293Y129177D01*
X52032D01*
Y127850D01*
X65080D01*
Y141898D01*
X52032D01*
Y140571D01*
X41293D01*
X37846Y144018D01*
D02*
G37*
G36*
X462844Y142914D02*
X449796D01*
Y136661D01*
X445324Y132190D01*
X436372D01*
X434192Y131756D01*
X432343Y130521D01*
X431108Y128672D01*
X430675Y126492D01*
X431108Y124312D01*
X432343Y122463D01*
X434192Y121228D01*
X436372Y120794D01*
X447684D01*
X449864Y121228D01*
X451713Y122463D01*
X458115Y128866D01*
X462844D01*
Y142914D01*
D02*
G37*
G36*
X82080Y141898D02*
X69032D01*
Y127850D01*
X74023D01*
X81013Y120859D01*
X82862Y119624D01*
X85042Y119191D01*
X95303D01*
X97484Y119624D01*
X99332Y120859D01*
X100567Y122708D01*
X101001Y124888D01*
X100567Y127068D01*
X99332Y128917D01*
X97484Y130152D01*
X95303Y130585D01*
X87402D01*
X82080Y135907D01*
Y141898D01*
D02*
G37*
G36*
X508381Y119634D02*
X495427D01*
X491981Y116187D01*
X479844D01*
Y117514D01*
X466796D01*
Y103466D01*
X479844D01*
Y104792D01*
X491981D01*
X495427Y101346D01*
X508381D01*
X512953Y105918D01*
Y115062D01*
X508381Y119634D01*
D02*
G37*
G36*
X37846Y118618D02*
X23622D01*
X19050Y114046D01*
Y104902D01*
X23622Y100330D01*
X37846D01*
X41293Y103777D01*
X52032D01*
Y102450D01*
X65080D01*
Y116498D01*
X52032D01*
Y115171D01*
X41293D01*
X37846Y118618D01*
D02*
G37*
G36*
X462844Y117514D02*
X449796D01*
Y111261D01*
X445324Y106790D01*
X436372D01*
X434192Y106356D01*
X432343Y105121D01*
X431108Y103272D01*
X430675Y101092D01*
X431108Y98912D01*
X432343Y97063D01*
X434192Y95828D01*
X436372Y95394D01*
X447684D01*
X449864Y95828D01*
X451713Y97063D01*
X458115Y103466D01*
X462844D01*
Y117514D01*
D02*
G37*
G36*
X82080Y116498D02*
X69032D01*
Y102450D01*
X74523D01*
X80925Y96047D01*
X82774Y94812D01*
X84954Y94378D01*
X96266D01*
X98446Y94812D01*
X100295Y96047D01*
X101530Y97896D01*
X101964Y100076D01*
X101530Y102256D01*
X100295Y104105D01*
X98446Y105340D01*
X96266Y105773D01*
X87314D01*
X82080Y111007D01*
Y116498D01*
D02*
G37*
G36*
X508381Y94234D02*
X495427D01*
X491981Y90787D01*
X479844D01*
Y92114D01*
X466796D01*
Y78066D01*
X479844D01*
Y79392D01*
X491981D01*
X495427Y75946D01*
X508381D01*
X512953Y80518D01*
Y89662D01*
X508381Y94234D01*
D02*
G37*
G36*
X37846Y93218D02*
X23622D01*
X19050Y88646D01*
Y79502D01*
X23622Y74930D01*
X37846D01*
X41293Y78376D01*
X52032D01*
Y77050D01*
X65080D01*
Y91098D01*
X52032D01*
Y89771D01*
X41293D01*
X37846Y93218D01*
D02*
G37*
G36*
X462844Y92114D02*
X449796D01*
Y85861D01*
X445324Y81390D01*
X436372D01*
X434192Y80956D01*
X432343Y79721D01*
X431108Y77872D01*
X430675Y75692D01*
X431108Y73512D01*
X432343Y71663D01*
X434192Y70428D01*
X436372Y69995D01*
X447684D01*
X449864Y70428D01*
X451713Y71663D01*
X458115Y78066D01*
X462844D01*
Y92114D01*
D02*
G37*
G36*
X82080Y91098D02*
X69032D01*
Y77050D01*
X74523D01*
X80925Y70647D01*
X82774Y69412D01*
X84954Y68979D01*
X96266D01*
X98446Y69412D01*
X100295Y70647D01*
X101530Y72496D01*
X101964Y74676D01*
X101530Y76856D01*
X100295Y78705D01*
X98446Y79940D01*
X96266Y80373D01*
X87314D01*
X82080Y85607D01*
Y91098D01*
D02*
G37*
G36*
X508381Y68834D02*
X495427D01*
X491981Y65388D01*
X479844D01*
Y66714D01*
X466796D01*
Y52666D01*
X479844D01*
Y53993D01*
X491981D01*
X495427Y50546D01*
X508381D01*
X512953Y55118D01*
Y64262D01*
X508381Y68834D01*
D02*
G37*
G36*
X37846Y67818D02*
X23622D01*
X19050Y63246D01*
Y54102D01*
X23622Y49530D01*
X37846D01*
X41293Y52976D01*
X52032D01*
Y51650D01*
X65080D01*
Y65698D01*
X52032D01*
Y64372D01*
X41293D01*
X37846Y67818D01*
D02*
G37*
G36*
X462844Y66714D02*
X449796D01*
Y60461D01*
X445324Y55989D01*
X436372D01*
X434192Y55556D01*
X432343Y54321D01*
X431108Y52472D01*
X430675Y50292D01*
X431108Y48112D01*
X432343Y46263D01*
X434192Y45028D01*
X436372Y44594D01*
X447684D01*
X449864Y45028D01*
X451713Y46263D01*
X458115Y52666D01*
X462844D01*
Y66714D01*
D02*
G37*
G36*
X82080Y65698D02*
X69032D01*
Y51650D01*
X74523D01*
X80925Y45247D01*
X82774Y44012D01*
X84954Y43579D01*
X96266D01*
X98446Y44012D01*
X100295Y45247D01*
X101530Y47096D01*
X101964Y49276D01*
X101530Y51456D01*
X100295Y53305D01*
X98446Y54540D01*
X96266Y54974D01*
X87314D01*
X82080Y60207D01*
Y65698D01*
D02*
G37*
G36*
X508381Y43434D02*
X495427D01*
X491981Y39987D01*
X479844D01*
Y41314D01*
X466796D01*
Y27266D01*
X479844D01*
Y28593D01*
X491981D01*
X495427Y25146D01*
X508381D01*
X512953Y29718D01*
Y38862D01*
X508381Y43434D01*
D02*
G37*
G36*
X37846Y42418D02*
X23622D01*
X19050Y37846D01*
Y28702D01*
X23622Y24130D01*
X37846D01*
X41293Y27576D01*
X52032D01*
Y26250D01*
X65080D01*
Y40298D01*
X52032D01*
Y38972D01*
X41293D01*
X37846Y42418D01*
D02*
G37*
G36*
X462844Y41314D02*
X449796D01*
Y35061D01*
X445324Y30589D01*
X436372D01*
X434192Y30156D01*
X432343Y28921D01*
X431108Y27072D01*
X430675Y24892D01*
X431108Y22712D01*
X432343Y20863D01*
X434192Y19628D01*
X436372Y19195D01*
X447684D01*
X449864Y19628D01*
X451713Y20863D01*
X458115Y27266D01*
X462844D01*
Y41314D01*
D02*
G37*
G36*
X82080Y40298D02*
X69032D01*
Y26250D01*
X74523D01*
X80925Y19847D01*
X82774Y18612D01*
X84954Y18178D01*
X96266D01*
X98446Y18612D01*
X100295Y19847D01*
X101530Y21696D01*
X101964Y23876D01*
X101530Y26056D01*
X100295Y27905D01*
X98446Y29140D01*
X96266Y29574D01*
X87314D01*
X82080Y34807D01*
Y40298D01*
D02*
G37*
%LPD*%
D23*
X456320Y389890D02*
D03*
Y415290D02*
D03*
Y339090D02*
D03*
Y364490D02*
D03*
Y288290D02*
D03*
Y262890D02*
D03*
Y313690D02*
D03*
Y135890D02*
D03*
Y212090D02*
D03*
Y237490D02*
D03*
Y161290D02*
D03*
Y186690D02*
D03*
Y34290D02*
D03*
Y85090D02*
D03*
Y110490D02*
D03*
Y59690D02*
D03*
X75556Y363474D02*
D03*
Y338074D02*
D03*
Y287274D02*
D03*
Y312674D02*
D03*
Y261874D02*
D03*
Y33274D02*
D03*
Y58674D02*
D03*
Y211074D02*
D03*
Y236474D02*
D03*
Y160274D02*
D03*
Y185674D02*
D03*
Y109474D02*
D03*
Y134874D02*
D03*
Y84074D02*
D03*
X473320Y313690D02*
D03*
X58556Y84074D02*
D03*
Y134874D02*
D03*
Y236474D02*
D03*
X473320Y85090D02*
D03*
Y34290D02*
D03*
X58556Y33274D02*
D03*
Y160274D02*
D03*
X473320Y364490D02*
D03*
Y212090D02*
D03*
X58556Y58674D02*
D03*
Y185674D02*
D03*
X473320Y262890D02*
D03*
X58556Y109474D02*
D03*
X473320Y415290D02*
D03*
Y288290D02*
D03*
Y135890D02*
D03*
X58556Y261874D02*
D03*
Y312674D02*
D03*
Y338074D02*
D03*
Y363474D02*
D03*
X473320Y339090D02*
D03*
X58556Y211074D02*
D03*
X473320Y389890D02*
D03*
Y237490D02*
D03*
Y161290D02*
D03*
Y110490D02*
D03*
Y59690D02*
D03*
Y186690D02*
D03*
X58556Y287274D02*
D03*
D47*
X392176Y272542D02*
Y290322D01*
X326136Y356362D02*
X392176Y290322D01*
X295656Y326122D02*
X308596Y313182D01*
X315976Y345719D02*
X356616Y305079D01*
X373638Y287782D02*
X374908D01*
X351096Y199502D02*
X351286Y199312D01*
X287532Y269494D02*
X287786D01*
X287278Y269240D02*
X287532Y269494D01*
X328680Y222718D02*
Y222758D01*
X207078Y293282D02*
X207078Y293282D01*
Y287770D02*
Y293282D01*
X197870Y288290D02*
X206558D01*
X207078Y287770D01*
Y282282D02*
Y287770D01*
D48*
X436372Y24892D02*
X447684D01*
X457082Y34290D01*
X473320Y389890D02*
X501142D01*
X473320Y415290D02*
X501142D01*
X473320Y34290D02*
X501904D01*
X473320Y59690D02*
X501142D01*
X473320Y110490D02*
X501142D01*
X473320Y85090D02*
X501142D01*
X473320Y186690D02*
X501142D01*
X473320Y212090D02*
X501142D01*
X473320Y161290D02*
X501142D01*
X473320Y135890D02*
X501142D01*
X473320Y288290D02*
X501142D01*
X473320Y313690D02*
X501142D01*
X473320Y262890D02*
X501142D01*
X473320Y237490D02*
X501142D01*
X473320Y364490D02*
X501142D01*
X473320Y339090D02*
X501142D01*
X30734Y33274D02*
X58556D01*
X30734Y58674D02*
X58556D01*
X30734Y109474D02*
X58556D01*
X30734Y84074D02*
X58556D01*
X30734Y185674D02*
X58556D01*
X30734Y211074D02*
X58556D01*
X30734Y160274D02*
X58556D01*
X30734Y134874D02*
X58556D01*
X30734Y287274D02*
X58556D01*
X30734Y312674D02*
X58556D01*
X30734Y261874D02*
X58556D01*
X30734Y236474D02*
X58556D01*
X30734Y363474D02*
X58556D01*
X30734Y338074D02*
X58556D01*
X447684Y253492D02*
X457082Y262890D01*
X436372Y253492D02*
X447684D01*
X436372Y355092D02*
X447684D01*
X457082Y364490D01*
X436372Y278892D02*
X447684D01*
X457082Y288290D01*
X447684Y329692D02*
X457082Y339090D01*
X436372Y329692D02*
X447684D01*
Y228092D02*
X457082Y237490D01*
X436372Y228092D02*
X447684D01*
Y405892D02*
X457082Y415290D01*
X436372Y405892D02*
X447684D01*
X436372Y202692D02*
X447684D01*
X457082Y212090D01*
X84954Y277876D02*
X96266D01*
X75556Y287274D02*
X84954Y277876D01*
X75556Y312674D02*
X84954Y303276D01*
X96266D01*
X84954Y328676D02*
X96266D01*
X75556Y338074D02*
X84954Y328676D01*
X75556Y33274D02*
X84954Y23876D01*
X96266D01*
X75556Y185674D02*
X84954Y176276D01*
X96266D01*
X84954Y150876D02*
X96266D01*
X75556Y160274D02*
X84954Y150876D01*
X85042Y124888D02*
X95303D01*
X75556Y134374D02*
X85042Y124888D01*
X75556Y134374D02*
Y134874D01*
X84954Y100076D02*
X96266D01*
X75556Y58674D02*
X84954Y49276D01*
X96266D01*
X75556Y84074D02*
X84954Y74676D01*
X96266D01*
X84954Y201676D02*
X96266D01*
X75556Y261874D02*
X84954Y252476D01*
X96266D01*
X75556Y211074D02*
X84954Y201676D01*
Y227076D02*
X96266D01*
X75556Y236474D02*
X84954Y227076D01*
X75556Y109474D02*
X84954Y100076D01*
X447684Y380492D02*
X457082Y389890D01*
X436372Y380492D02*
X447684D01*
Y304292D02*
X457082Y313690D01*
X436372Y304292D02*
X447684D01*
Y177292D02*
X457082Y186690D01*
X436372Y177292D02*
X447684D01*
Y151892D02*
X457082Y161290D01*
X436372Y151892D02*
X447684D01*
Y126492D02*
X457082Y135890D01*
X436372Y126492D02*
X447684D01*
Y101092D02*
X457082Y110490D01*
X436372Y101092D02*
X447684D01*
Y75692D02*
X457082Y85090D01*
X436372Y75692D02*
X447684D01*
Y50292D02*
X457082Y59690D01*
X436372Y50292D02*
X447684D01*
X75556Y363474D02*
X84954Y354076D01*
X96266D01*
X358858Y274642D02*
Y287782D01*
X338396Y199502D02*
X351096D01*
X263578Y221996D02*
Y234642D01*
X344858Y274270D02*
Y287782D01*
X283396Y273122D02*
Y282192D01*
X344794Y274206D02*
X344858Y274270D01*
X337054Y274206D02*
X344794D01*
X332490Y269642D02*
X337054Y274206D01*
X283396Y273122D02*
X287278Y269240D01*
X338396Y213642D02*
X351286D01*
X328680Y222718D02*
X337896Y213502D01*
X287794Y235078D02*
X292358Y239642D01*
X277642Y235078D02*
X287794D01*
X277578Y235014D02*
X277642Y235078D01*
X277578Y235014D02*
Y248412D01*
Y221996D02*
Y235014D01*
D51*
X283396Y296192D02*
Y308102D01*
Y294782D02*
Y296192D01*
X358858Y287782D02*
X373638D01*
X358858Y274642D02*
X373638D01*
X358858Y287782D02*
X358858Y287782D01*
X351286Y183642D02*
Y199312D01*
X338396Y183642D02*
Y199312D01*
X249178Y234642D02*
X263578D01*
X255528Y248412D02*
X263578D01*
X252988Y242062D02*
X253386Y242460D01*
X188218Y228092D02*
X210316Y250190D01*
X188028Y205232D02*
X188218Y205422D01*
X207078Y272282D02*
X223588D01*
X210316Y250190D02*
X244860D01*
X253386Y242460D02*
Y246270D01*
X188218Y205422D02*
Y228092D01*
X207078Y303282D02*
X223588D01*
X244860Y250190D02*
X252988Y242062D01*
X253386Y246270D02*
X255528Y248412D01*
D52*
X299466Y374142D02*
D03*
X312166D02*
D03*
X286766D02*
D03*
X261366D02*
D03*
X248666D02*
D03*
D53*
X324866D02*
D03*
X235966D02*
D03*
D54*
X35858Y441932D02*
D03*
D55*
X188028Y154432D02*
D03*
D56*
Y205232D02*
D03*
D57*
X223198Y303282D02*
D03*
Y272282D02*
D03*
D58*
X501904Y313690D02*
D03*
Y85090D02*
D03*
Y34290D02*
D03*
Y364490D02*
D03*
Y212090D02*
D03*
Y262890D02*
D03*
Y415290D02*
D03*
Y288290D02*
D03*
Y135890D02*
D03*
Y339090D02*
D03*
Y389890D02*
D03*
Y237490D02*
D03*
Y161290D02*
D03*
Y110490D02*
D03*
Y59690D02*
D03*
Y186690D02*
D03*
D59*
X30734Y84074D02*
D03*
Y134874D02*
D03*
Y236474D02*
D03*
Y33274D02*
D03*
Y160274D02*
D03*
Y58674D02*
D03*
Y185674D02*
D03*
Y109474D02*
D03*
Y261874D02*
D03*
Y312674D02*
D03*
Y338074D02*
D03*
Y363474D02*
D03*
Y211074D02*
D03*
Y287274D02*
D03*
D60*
X35858Y416532D02*
D03*
D61*
X436372Y24892D02*
D03*
X422656Y186690D02*
D03*
X326136Y356362D02*
D03*
X392176Y272542D02*
D03*
X295656Y326122D02*
D03*
X308596Y313182D02*
D03*
X315976Y345719D02*
D03*
X356616Y305079D02*
D03*
X422656Y262890D02*
D03*
X436372Y253492D02*
D03*
Y355092D02*
D03*
X422656Y339090D02*
D03*
X436372Y278892D02*
D03*
Y329692D02*
D03*
Y228092D02*
D03*
Y405892D02*
D03*
Y202692D02*
D03*
X96266Y277876D02*
D03*
Y303276D02*
D03*
Y328676D02*
D03*
Y23876D02*
D03*
Y176276D02*
D03*
Y150876D02*
D03*
X95303Y124888D02*
D03*
X96266Y100076D02*
D03*
Y49276D02*
D03*
Y74676D02*
D03*
Y201676D02*
D03*
Y252476D02*
D03*
Y227076D02*
D03*
X436372Y380492D02*
D03*
Y304292D02*
D03*
Y177292D02*
D03*
Y151892D02*
D03*
Y126492D02*
D03*
Y101092D02*
D03*
Y75692D02*
D03*
Y50292D02*
D03*
X96266Y354076D02*
D03*
X373638Y287782D02*
D03*
Y274642D02*
D03*
X351286Y183642D02*
D03*
X338396D02*
D03*
X211372Y420342D02*
D03*
X283396Y308102D02*
D03*
X249178Y234642D02*
D03*
X422656Y288290D02*
D03*
Y313690D02*
D03*
Y212090D02*
D03*
Y135890D02*
D03*
X423139Y161290D02*
D03*
X109982Y185674D02*
D03*
Y134874D02*
D03*
Y84074D02*
D03*
Y58674D02*
D03*
Y33274D02*
D03*
Y287274D02*
D03*
Y261874D02*
D03*
Y236474D02*
D03*
Y109474D02*
D03*
X422656Y415290D02*
D03*
Y389890D02*
D03*
Y364490D02*
D03*
Y237490D02*
D03*
Y110490D02*
D03*
Y85090D02*
D03*
Y59690D02*
D03*
Y34290D02*
D03*
X109982Y363474D02*
D03*
Y338074D02*
D03*
Y312674D02*
D03*
Y211074D02*
D03*
Y160274D02*
D03*
X242004Y394790D02*
D03*
X332490Y269642D02*
D03*
X288396Y269240D02*
D03*
X292358Y239642D02*
D03*
X328680Y222758D02*
D03*
X150412Y443456D02*
D03*
X197870Y288290D02*
D03*
X236986Y243078D02*
D03*
X206760Y192532D02*
D03*
X208352Y154432D02*
D03*
X252988Y242062D02*
D03*
D69*
X358468Y287782D02*
D03*
Y274642D02*
D03*
X263696Y234642D02*
D03*
Y221996D02*
D03*
X344468Y287782D02*
D03*
Y274642D02*
D03*
X277696Y248298D02*
D03*
Y234642D02*
D03*
Y221996D02*
D03*
X263696Y248298D02*
D03*
D70*
X338396Y199642D02*
D03*
X351286D02*
D03*
X283396Y296192D02*
D03*
Y282192D02*
D03*
X351286Y213642D02*
D03*
X338396D02*
D03*
D71*
X207078Y293282D02*
D03*
Y282282D02*
D03*
Y272282D02*
D03*
Y303282D02*
D03*
M02*
