G04*
G04 #@! TF.GenerationSoftware,Altium Limited,Altium Designer,26.3.0 (6)*
G04*
G04 Layer_Physical_Order=1*
G04 Layer_Color=255*
%FSLAX44Y44*%
%MOMM*%
G71*
G04*
G04 #@! TF.SameCoordinates,B1B4E18B-4560-4E18-BF29-402D28114D08*
G04*
G04*
G04 #@! TF.FilePolarity,Positive*
G04*
G01*
G75*
%ADD17O,0.3000X1.8000*%
%ADD18O,1.8000X0.3000*%
%ADD19R,1.3000X1.6000*%
%ADD20R,2.2000X3.3000*%
%ADD21R,2.2000X1.0000*%
%ADD22R,1.7000X1.1000*%
%ADD23R,1.0000X1.1000*%
%ADD24R,0.6000X0.5000*%
%ADD25R,1.1000X1.3000*%
%ADD26R,0.7000X0.9000*%
%ADD47C,0.2997*%
%ADD48C,0.8128*%
%ADD49C,0.9906*%
%ADD50C,1.0922*%
%ADD51C,0.4064*%
%ADD52C,1.0000*%
%ADD53R,1.0000X1.0000*%
%ADD54R,1.5000X1.5000*%
%ADD55R,1.8500X1.8500*%
%ADD56C,1.8500*%
%ADD57C,1.3000*%
G04:AMPARAMS|DCode=58|XSize=1.905mm|YSize=1.524mm|CornerRadius=0mm|HoleSize=0mm|Usage=FLASHONLY|Rotation=180.000|XOffset=0mm|YOffset=0mm|HoleType=Round|Shape=Octagon|*
%AMOCTAGOND58*
4,1,8,-0.9525,0.3810,-0.9525,-0.3810,-0.5715,-0.7620,0.5715,-0.7620,0.9525,-0.3810,0.9525,0.3810,0.5715,0.7620,-0.5715,0.7620,-0.9525,0.3810,0.0*
%
%ADD58OCTAGOND58*%

G04:AMPARAMS|DCode=59|XSize=2.032mm|YSize=1.524mm|CornerRadius=0mm|HoleSize=0mm|Usage=FLASHONLY|Rotation=180.000|XOffset=0mm|YOffset=0mm|HoleType=Round|Shape=Octagon|*
%AMOCTAGOND59*
4,1,8,-1.0160,0.3810,-1.0160,-0.3810,-0.6350,-0.7620,0.6350,-0.7620,1.0160,-0.3810,1.0160,0.3810,0.6350,0.7620,-0.6350,0.7620,-1.0160,0.3810,0.0*
%
%ADD59OCTAGOND59*%

%ADD60C,1.5000*%
%ADD61C,0.5080*%
G36*
X528210Y5698D02*
X5698D01*
X5697Y462425D01*
X528210D01*
Y5698D01*
D02*
G37*
%LPC*%
G36*
X250028Y449424D02*
X233980D01*
Y445597D01*
X230930D01*
X228750Y445163D01*
X226901Y443928D01*
X209919Y426946D01*
X202560D01*
Y438112D01*
X177512D01*
Y426946D01*
X125222D01*
X124986Y426899D01*
X108445D01*
X105918Y426396D01*
X103776Y424964D01*
X101567Y422756D01*
X91856D01*
X89316Y422756D01*
X88318Y422756D01*
X69268D01*
Y422756D01*
X67726Y422756D01*
Y422756D01*
X66728Y422756D01*
X47678D01*
Y422336D01*
X42779D01*
X42294Y422968D01*
X40409Y424414D01*
X38214Y425323D01*
X35858Y425634D01*
X33503Y425323D01*
X31307Y424414D01*
X29422Y422968D01*
X27976Y421083D01*
X27067Y418887D01*
X26756Y416532D01*
X27067Y414176D01*
X27976Y411981D01*
X29422Y410096D01*
X31307Y408649D01*
X33503Y407740D01*
X35858Y407430D01*
X38214Y407740D01*
X40409Y408649D01*
X41033Y409128D01*
X47678D01*
Y408708D01*
X67726D01*
Y408708D01*
X69268Y408708D01*
Y408708D01*
X70148Y408708D01*
X72688Y408423D01*
Y402392D01*
X73191Y399865D01*
X74623Y397722D01*
X79533Y392812D01*
X81675Y391381D01*
X84202Y390878D01*
X86348D01*
X87052Y390738D01*
X119512D01*
Y390564D01*
X144560D01*
Y403612D01*
X126899D01*
X125222Y403946D01*
X87616D01*
X86944Y404079D01*
X86431Y404593D01*
Y407446D01*
X87692Y408708D01*
X90858Y408708D01*
X91856Y408708D01*
X110906D01*
Y413416D01*
X111181Y413691D01*
X119512D01*
Y413564D01*
X144560D01*
Y413738D01*
X177512D01*
Y402064D01*
X202560D01*
Y413738D01*
X211372D01*
X213899Y414241D01*
X216042Y415672D01*
X217473Y417815D01*
X217615Y418527D01*
X231440Y432352D01*
X233980Y431300D01*
Y430376D01*
X250028D01*
Y449424D01*
D02*
G37*
G36*
X508381Y424434D02*
X495427D01*
X491981Y420988D01*
X479844D01*
Y422314D01*
X466796D01*
Y412624D01*
X455666Y401494D01*
X441329D01*
X440019Y404034D01*
X440200Y404306D01*
X440516Y405892D01*
X440200Y407478D01*
X439302Y408822D01*
X437958Y409720D01*
X436372Y410036D01*
X434786Y409720D01*
X433442Y408822D01*
X432544Y407478D01*
X432228Y405892D01*
X432544Y404306D01*
X432725Y404034D01*
X431414Y401494D01*
X382113D01*
X380933Y401260D01*
X379934Y400592D01*
X321618Y342276D01*
X319645Y343895D01*
X319804Y344134D01*
X320120Y345719D01*
X319804Y347305D01*
X318906Y348649D01*
X317562Y349548D01*
X316421Y349775D01*
X315620Y351014D01*
X317170Y353295D01*
X317246Y353280D01*
X323433D01*
X324550Y352534D01*
X326136Y352218D01*
X327722Y352534D01*
X329066Y353432D01*
X329964Y354776D01*
X330280Y356362D01*
X329964Y357948D01*
X329066Y359292D01*
X327722Y360190D01*
X326136Y360506D01*
X324550Y360190D01*
X323433Y359444D01*
X318522D01*
X315248Y362719D01*
Y366182D01*
X317788Y367856D01*
X318342Y367618D01*
Y367618D01*
X331390D01*
Y380666D01*
X318342D01*
Y380666D01*
X315802Y379575D01*
X315456Y379841D01*
X313869Y380498D01*
X312166Y380722D01*
X310463Y380498D01*
X308876Y379841D01*
X307513Y378795D01*
X307343Y378573D01*
X307243Y378521D01*
X304389D01*
X304289Y378573D01*
X304119Y378795D01*
X302756Y379841D01*
X301169Y380498D01*
X299466Y380722D01*
X297763Y380498D01*
X296176Y379841D01*
X294813Y378795D01*
X293767Y377432D01*
X293110Y375845D01*
X292886Y374142D01*
X293110Y372439D01*
X293767Y370852D01*
X294813Y369489D01*
X296176Y368443D01*
X296384Y368357D01*
Y362229D01*
X296619Y361050D01*
X297287Y360050D01*
X311886Y345451D01*
X312148Y344134D01*
X313046Y342789D01*
X314390Y341891D01*
X315976Y341576D01*
X317562Y341891D01*
X317800Y342051D01*
X319419Y340078D01*
X296217Y316875D01*
X295549Y315875D01*
X295314Y314696D01*
Y313581D01*
X292967Y312609D01*
X256801Y348776D01*
X255801Y349444D01*
X254621Y349678D01*
X101223D01*
X99913Y352218D01*
X100094Y352490D01*
X100410Y354076D01*
X100094Y355662D01*
X99196Y357006D01*
X97852Y357904D01*
X96266Y358220D01*
X94680Y357904D01*
X93336Y357006D01*
X92438Y355662D01*
X92122Y354076D01*
X92438Y352490D01*
X92619Y352218D01*
X91308Y349678D01*
X76210D01*
X65080Y360808D01*
Y370498D01*
X52032D01*
Y369171D01*
X41293D01*
X37846Y372618D01*
X23622D01*
X19050Y368046D01*
Y358902D01*
X23622Y354330D01*
X37846D01*
X41293Y357776D01*
X52032D01*
Y356450D01*
X60722D01*
X72754Y344417D01*
X73754Y343749D01*
X74933Y343515D01*
X253345D01*
X282252Y314608D01*
X281908Y312521D01*
X281527Y311741D01*
X280466Y311032D01*
X279568Y309688D01*
X279252Y308102D01*
X279568Y306516D01*
X280314Y305399D01*
Y295149D01*
X280313Y295142D01*
Y280142D01*
X280417Y279616D01*
X279945Y278867D01*
X279170Y278093D01*
X278422Y277621D01*
X277896Y277725D01*
X262896D01*
X261716Y277491D01*
X260716Y276822D01*
X260047Y275822D01*
X259813Y274642D01*
X260047Y273462D01*
X260716Y272462D01*
Y271822D01*
X260047Y270822D01*
X259813Y269642D01*
X257719Y267724D01*
X250735D01*
X242100Y276359D01*
Y300482D01*
X241865Y301661D01*
X241197Y302661D01*
X238397Y305461D01*
X237397Y306129D01*
X236218Y306364D01*
X230606D01*
X230207Y307328D01*
X228921Y309005D01*
X227245Y310291D01*
X225293Y311099D01*
X223198Y311375D01*
X221103Y311099D01*
X219151Y310291D01*
X217475Y309005D01*
X216189Y307328D01*
X215380Y305377D01*
X215105Y303282D01*
X215380Y301187D01*
X216189Y299235D01*
X217475Y297559D01*
X219151Y296273D01*
X221103Y295464D01*
X223198Y295189D01*
X225293Y295464D01*
X227245Y296273D01*
X228921Y297559D01*
X230207Y299235D01*
X230606Y300200D01*
X234942D01*
X235936Y299205D01*
Y275784D01*
X235424Y275364D01*
X230606D01*
X230207Y276329D01*
X228921Y278005D01*
X227245Y279291D01*
X225293Y280099D01*
X223198Y280375D01*
X221103Y280099D01*
X219151Y279291D01*
X217475Y278005D01*
X216189Y276329D01*
X215380Y274377D01*
X215105Y272282D01*
X215380Y270187D01*
X216189Y268235D01*
X217475Y266559D01*
X219151Y265273D01*
X221103Y264464D01*
X223198Y264189D01*
X225293Y264464D01*
X227245Y265273D01*
X228921Y266559D01*
X230207Y268235D01*
X230606Y269200D01*
X234147D01*
X243277Y260070D01*
X242305Y257724D01*
X217308D01*
X216129Y257489D01*
X215129Y256821D01*
X212409Y254101D01*
X211741Y253101D01*
X211506Y251922D01*
Y247356D01*
X210064D01*
Y239308D01*
X208403Y237456D01*
X207564D01*
Y221408D01*
X221612D01*
Y237456D01*
X220773D01*
X219112Y239308D01*
Y247356D01*
X217670D01*
Y250645D01*
X218584Y251560D01*
X244649D01*
X245621Y249214D01*
X240649Y244241D01*
X239981Y243241D01*
X239746Y242062D01*
Y216940D01*
X239612Y214456D01*
X237206Y214456D01*
X225564D01*
Y198408D01*
X226403D01*
X228064Y196556D01*
Y188508D01*
X228064Y188508D01*
X227564Y186250D01*
X227564Y186250D01*
X227564Y186175D01*
Y174202D01*
X237612D01*
Y186175D01*
X237612Y186250D01*
X237612Y186250D01*
X237112Y188508D01*
X237112Y188508D01*
Y194000D01*
X238812Y195572D01*
X239652Y195765D01*
X239746Y195689D01*
Y195072D01*
X239981Y193893D01*
X240649Y192893D01*
X244506Y189035D01*
Y186250D01*
X242564D01*
Y174202D01*
X251029D01*
Y77333D01*
X248558Y74862D01*
X216008D01*
X155228Y135643D01*
Y286512D01*
X154993Y287691D01*
X154325Y288691D01*
X119641Y323376D01*
X118641Y324044D01*
X117461Y324278D01*
X101223D01*
X99913Y326818D01*
X100094Y327090D01*
X100410Y328676D01*
X100094Y330262D01*
X99196Y331606D01*
X97852Y332504D01*
X96266Y332820D01*
X94680Y332504D01*
X93336Y331606D01*
X92438Y330262D01*
X92122Y328676D01*
X92438Y327090D01*
X92619Y326818D01*
X91308Y324278D01*
X76210D01*
X65080Y335408D01*
Y345098D01*
X52032D01*
Y343772D01*
X41293D01*
X37846Y347218D01*
X23622D01*
X19050Y342646D01*
Y333502D01*
X23622Y328930D01*
X37846D01*
X41293Y332377D01*
X52032D01*
Y331050D01*
X60722D01*
X72754Y319017D01*
X73754Y318349D01*
X74933Y318115D01*
X116185D01*
X149064Y285236D01*
Y269331D01*
X146718Y268359D01*
X117101Y297976D01*
X116101Y298644D01*
X114921Y298878D01*
X101223D01*
X99913Y301418D01*
X100094Y301690D01*
X100410Y303276D01*
X100094Y304862D01*
X99196Y306206D01*
X97852Y307104D01*
X96266Y307420D01*
X94680Y307104D01*
X93336Y306206D01*
X92438Y304862D01*
X92122Y303276D01*
X92438Y301690D01*
X92619Y301418D01*
X91308Y298878D01*
X76210D01*
X65080Y310008D01*
Y319698D01*
X52032D01*
Y318372D01*
X41293D01*
X37846Y321818D01*
X23622D01*
X19050Y317246D01*
Y308102D01*
X23622Y303530D01*
X37846D01*
X41293Y306977D01*
X52032D01*
Y305650D01*
X60722D01*
X72754Y293617D01*
X73754Y292949D01*
X74933Y292715D01*
X113645D01*
X144543Y261817D01*
Y250992D01*
X142196Y250020D01*
X119641Y272576D01*
X118641Y273244D01*
X117461Y273478D01*
X101223D01*
X99913Y276018D01*
X100094Y276290D01*
X100410Y277876D01*
X100094Y279462D01*
X99196Y280806D01*
X97852Y281704D01*
X96266Y282020D01*
X94680Y281704D01*
X93336Y280806D01*
X92438Y279462D01*
X92122Y277876D01*
X92438Y276290D01*
X92619Y276018D01*
X91308Y273478D01*
X76210D01*
X65080Y284608D01*
Y294298D01*
X52032D01*
Y292971D01*
X41293D01*
X37846Y296418D01*
X23622D01*
X19050Y291846D01*
Y282702D01*
X23622Y278130D01*
X37846D01*
X41293Y281576D01*
X52032D01*
Y280250D01*
X60722D01*
X72754Y268217D01*
X73754Y267549D01*
X74933Y267315D01*
X116185D01*
X139615Y243884D01*
Y227980D01*
X137269Y227008D01*
X115184Y249093D01*
X114184Y249761D01*
X113005Y249995D01*
X102318D01*
X100410Y252476D01*
X100094Y254062D01*
X99196Y255406D01*
X97852Y256304D01*
X96266Y256620D01*
X94680Y256304D01*
X93336Y255406D01*
X92438Y254062D01*
X92122Y252476D01*
X90214Y249995D01*
X74293D01*
X65080Y259208D01*
Y268898D01*
X52032D01*
Y267572D01*
X41293D01*
X37846Y271018D01*
X23622D01*
X19050Y266446D01*
Y257302D01*
X23622Y252730D01*
X37846D01*
X41293Y256176D01*
X52032D01*
Y254850D01*
X60722D01*
X70837Y244734D01*
X71837Y244066D01*
X73017Y243832D01*
X111728D01*
X135094Y220466D01*
Y209641D01*
X132747Y208669D01*
X117724Y223693D01*
X116724Y224361D01*
X115545Y224595D01*
X102318D01*
X100410Y227076D01*
X100094Y228662D01*
X99196Y230006D01*
X97852Y230904D01*
X96266Y231220D01*
X94680Y230904D01*
X93336Y230006D01*
X92438Y228662D01*
X92122Y227076D01*
X90214Y224595D01*
X74293D01*
X65080Y233808D01*
Y243498D01*
X52032D01*
Y242171D01*
X41293D01*
X37846Y245618D01*
X23622D01*
X19050Y241046D01*
Y231902D01*
X23622Y227330D01*
X37846D01*
X41293Y230777D01*
X52032D01*
Y229450D01*
X60722D01*
X70837Y219334D01*
X71837Y218666D01*
X73017Y218432D01*
X114268D01*
X130014Y202686D01*
Y189321D01*
X127668Y188349D01*
X117495Y198521D01*
X116495Y199189D01*
X115316Y199424D01*
X102471D01*
X100410Y201676D01*
X100094Y203262D01*
X99196Y204606D01*
X97852Y205504D01*
X96266Y205820D01*
X94680Y205504D01*
X93336Y204606D01*
X92438Y203262D01*
X92122Y201676D01*
X90214Y199195D01*
X74293D01*
X65080Y208408D01*
Y218098D01*
X52032D01*
Y216772D01*
X41293D01*
X37846Y220218D01*
X23622D01*
X19050Y215646D01*
Y206502D01*
X23622Y201930D01*
X37846D01*
X41293Y205376D01*
X52032D01*
Y204050D01*
X60722D01*
X70837Y193934D01*
X71837Y193266D01*
X73017Y193032D01*
X98570D01*
X99719Y193260D01*
X114039D01*
X125032Y182267D01*
Y168903D01*
X122686Y167931D01*
X119641Y170976D01*
X118641Y171644D01*
X117461Y171878D01*
X101223D01*
X99913Y174418D01*
X100094Y174690D01*
X100410Y176276D01*
X100094Y177862D01*
X99196Y179206D01*
X97852Y180104D01*
X96266Y180420D01*
X94680Y180104D01*
X93336Y179206D01*
X92438Y177862D01*
X92122Y176276D01*
X92438Y174690D01*
X92619Y174418D01*
X91308Y171878D01*
X76210D01*
X65080Y183008D01*
Y192698D01*
X52032D01*
Y191371D01*
X41293D01*
X37846Y194818D01*
X23622D01*
X19050Y190246D01*
Y181102D01*
X23622Y176530D01*
X37846D01*
X41293Y179977D01*
X52032D01*
Y178650D01*
X60722D01*
X72754Y166617D01*
X73754Y165949D01*
X74933Y165715D01*
X116185D01*
X120511Y161388D01*
Y145484D01*
X118165Y144512D01*
X117101Y145576D01*
X116101Y146244D01*
X114921Y146478D01*
X101223D01*
X99913Y149018D01*
X100094Y149290D01*
X100410Y150876D01*
X100094Y152462D01*
X99196Y153806D01*
X97852Y154704D01*
X96266Y155020D01*
X94680Y154704D01*
X93336Y153806D01*
X92438Y152462D01*
X92122Y150876D01*
X92438Y149290D01*
X92619Y149018D01*
X91308Y146478D01*
X76210D01*
X65080Y157608D01*
Y167298D01*
X52032D01*
Y165972D01*
X41293D01*
X37846Y169418D01*
X23622D01*
X19050Y164846D01*
Y155702D01*
X23622Y151130D01*
X37846D01*
X41293Y154577D01*
X52032D01*
Y153250D01*
X60722D01*
X72754Y141217D01*
X73754Y140549D01*
X74933Y140315D01*
X113645D01*
X115990Y137970D01*
Y122429D01*
X113669Y121078D01*
X100700D01*
X99417Y122897D01*
X99194Y123618D01*
X99447Y124888D01*
X99132Y126474D01*
X98233Y127818D01*
X96889Y128716D01*
X95303Y129032D01*
X93718Y128716D01*
X92373Y127818D01*
X91475Y126474D01*
X91160Y124888D01*
X91412Y123618D01*
X91189Y122897D01*
X89906Y121078D01*
X76210D01*
X65080Y132208D01*
Y141898D01*
X52032D01*
Y140571D01*
X41293D01*
X37846Y144018D01*
X23622D01*
X19050Y139446D01*
Y130302D01*
X23622Y125730D01*
X37846D01*
X41293Y129177D01*
X52032D01*
Y127850D01*
X60722D01*
X72754Y115817D01*
X73754Y115149D01*
X74933Y114915D01*
X115833D01*
X132723Y98025D01*
X131751Y95678D01*
X101223D01*
X99913Y98218D01*
X100094Y98490D01*
X100410Y100076D01*
X100094Y101662D01*
X99196Y103006D01*
X97852Y103904D01*
X96266Y104220D01*
X94680Y103904D01*
X93336Y103006D01*
X92438Y101662D01*
X92122Y100076D01*
X92438Y98490D01*
X92619Y98218D01*
X91308Y95678D01*
X76210D01*
X65080Y106808D01*
Y116498D01*
X52032D01*
Y115171D01*
X41293D01*
X37846Y118618D01*
X23622D01*
X19050Y114046D01*
Y104902D01*
X23622Y100330D01*
X37846D01*
X41293Y103777D01*
X52032D01*
Y102450D01*
X60722D01*
X72754Y90417D01*
X73754Y89749D01*
X74933Y89515D01*
X134053D01*
X150942Y72625D01*
X149971Y70278D01*
X101223D01*
X99913Y72818D01*
X100094Y73090D01*
X100410Y74676D01*
X100094Y76262D01*
X99196Y77606D01*
X97852Y78504D01*
X96266Y78820D01*
X94680Y78504D01*
X93336Y77606D01*
X92438Y76262D01*
X92122Y74676D01*
X92438Y73090D01*
X92619Y72818D01*
X91308Y70278D01*
X76210D01*
X65080Y81408D01*
Y91098D01*
X52032D01*
Y89771D01*
X41293D01*
X37846Y93218D01*
X23622D01*
X19050Y88646D01*
Y79502D01*
X23622Y74930D01*
X37846D01*
X41293Y78376D01*
X52032D01*
Y77050D01*
X60722D01*
X72754Y65017D01*
X73754Y64349D01*
X74933Y64115D01*
X153059D01*
X169949Y47225D01*
X168976Y44878D01*
X101223D01*
X99913Y47418D01*
X100094Y47690D01*
X100410Y49276D01*
X100094Y50862D01*
X99196Y52206D01*
X97852Y53104D01*
X96266Y53420D01*
X94680Y53104D01*
X93336Y52206D01*
X92438Y50862D01*
X92122Y49276D01*
X92438Y47690D01*
X92619Y47418D01*
X91308Y44878D01*
X76210D01*
X65080Y56008D01*
Y65698D01*
X52032D01*
Y64372D01*
X41293D01*
X37846Y67818D01*
X23622D01*
X19050Y63246D01*
Y54102D01*
X23622Y49530D01*
X37846D01*
X41293Y52976D01*
X52032D01*
Y51650D01*
X60722D01*
X72754Y39617D01*
X73754Y38949D01*
X74933Y38715D01*
X172065D01*
X187825Y22954D01*
X186853Y20608D01*
X102025D01*
X101536Y21034D01*
X100265Y23148D01*
X100410Y23876D01*
X100094Y25462D01*
X99196Y26806D01*
X97852Y27704D01*
X96266Y28020D01*
X94680Y27704D01*
X93336Y26806D01*
X92438Y25462D01*
X92122Y23876D01*
X92267Y23148D01*
X90996Y21034D01*
X90507Y20608D01*
X65585D01*
X62483Y23710D01*
X63535Y26250D01*
X65080D01*
Y40298D01*
X52032D01*
Y38972D01*
X41293D01*
X37846Y42418D01*
X23622D01*
X19050Y37846D01*
Y28702D01*
X23622Y24130D01*
X37846D01*
X41293Y27576D01*
X52032D01*
Y26250D01*
X55474D01*
Y23278D01*
X55709Y22099D01*
X56377Y21099D01*
X62129Y15347D01*
X63129Y14679D01*
X64308Y14444D01*
X285007D01*
X286187Y14679D01*
X287187Y15347D01*
X330575Y58735D01*
X331243Y59735D01*
X331478Y60915D01*
Y199135D01*
X331479Y199142D01*
Y214142D01*
X331245Y215322D01*
X330576Y216322D01*
X329576Y216991D01*
X328396Y217225D01*
X327216Y216991D01*
X326216Y216322D01*
X325576D01*
X324576Y216991D01*
X323396Y217225D01*
X322216Y216991D01*
X321216Y216322D01*
X320576D01*
X319576Y216991D01*
X318396Y217225D01*
X317216Y216991D01*
X316216Y216322D01*
X315576D01*
X314576Y216991D01*
X313396Y217225D01*
X312216Y216991D01*
X311216Y216322D01*
X310576D01*
X309576Y216991D01*
X308396Y217225D01*
X307216Y216991D01*
X306216Y216322D01*
X305576D01*
X304576Y216991D01*
X303396Y217225D01*
X302216Y216991D01*
X301216Y216322D01*
X300576D01*
X299576Y216991D01*
X298396Y217225D01*
X297216Y216991D01*
X296216Y216322D01*
X295576D01*
X294576Y216991D01*
X293396Y217225D01*
X292216Y216991D01*
X291216Y216322D01*
X290576D01*
X289576Y216991D01*
X288396Y217225D01*
X287216Y216991D01*
X286216Y216322D01*
X285576D01*
X284576Y216991D01*
X283396Y217225D01*
X282870Y217121D01*
X282122Y217593D01*
X281347Y218368D01*
X280875Y219116D01*
X280979Y219642D01*
X280744Y220822D01*
X280076Y221822D01*
Y222462D01*
X280744Y223462D01*
X280979Y224642D01*
X280744Y225822D01*
X280076Y226822D01*
Y227462D01*
X280744Y228462D01*
X280979Y229642D01*
X280744Y230822D01*
X280076Y231822D01*
Y232462D01*
X280744Y233462D01*
X280979Y234642D01*
X280744Y235822D01*
X280076Y236822D01*
X279076Y237491D01*
X277896Y237725D01*
X262896D01*
X262889Y237724D01*
X259449D01*
X258029Y240263D01*
X258794Y241560D01*
X262889D01*
X262896Y241559D01*
X277896D01*
X279076Y241793D01*
X280076Y242462D01*
X280744Y243462D01*
X280979Y244642D01*
X280744Y245822D01*
X280076Y246822D01*
Y247462D01*
X280744Y248462D01*
X280979Y249642D01*
X280744Y250822D01*
X280076Y251822D01*
Y252462D01*
X280744Y253462D01*
X280979Y254642D01*
X280744Y255822D01*
X280076Y256822D01*
Y257462D01*
X280744Y258462D01*
X280979Y259642D01*
X280744Y260822D01*
X280076Y261822D01*
Y262462D01*
X280744Y263462D01*
X280979Y264642D01*
X280744Y265822D01*
X280076Y266822D01*
Y267462D01*
X280744Y268462D01*
X280979Y269642D01*
X280744Y270822D01*
X280076Y271822D01*
Y272462D01*
X280744Y273462D01*
X280979Y274642D01*
X280875Y275168D01*
X281347Y275917D01*
X282122Y276691D01*
X282870Y277163D01*
X283396Y277059D01*
X284576Y277293D01*
X285576Y277962D01*
X286245Y278962D01*
X286479Y280142D01*
Y295142D01*
X286478Y295149D01*
Y304412D01*
X288342Y305378D01*
X289255Y305368D01*
X290314Y304452D01*
Y295149D01*
X290313Y295142D01*
Y280142D01*
X290548Y278962D01*
X291216Y277962D01*
X292216Y277293D01*
X293396Y277059D01*
X294576Y277293D01*
X295576Y277962D01*
X296216D01*
X297216Y277293D01*
X298396Y277059D01*
X299576Y277293D01*
X300576Y277962D01*
X301216D01*
X302216Y277293D01*
X303396Y277059D01*
X304576Y277293D01*
X305576Y277962D01*
X306216D01*
X307216Y277293D01*
X308396Y277059D01*
X309576Y277293D01*
X310576Y277962D01*
X311216D01*
X312216Y277293D01*
X313396Y277059D01*
X314576Y277293D01*
X315576Y277962D01*
X316216D01*
X317216Y277293D01*
X318396Y277059D01*
X319576Y277293D01*
X320576Y277962D01*
X321216D01*
X322216Y277293D01*
X323396Y277059D01*
X324576Y277293D01*
X325576Y277962D01*
X326216D01*
X327216Y277293D01*
X328396Y277059D01*
X329576Y277293D01*
X330576Y277962D01*
X331216D01*
X332216Y277293D01*
X333396Y277059D01*
X334576Y277293D01*
X335576Y277962D01*
X336216D01*
X337216Y277293D01*
X338396Y277059D01*
X338922Y277163D01*
X339670Y276691D01*
X340445Y275917D01*
X340917Y275168D01*
X340813Y274642D01*
X341048Y273462D01*
X341716Y272462D01*
X342716Y271793D01*
X343896Y271559D01*
X358896D01*
X358903Y271560D01*
X370935D01*
X372052Y270814D01*
X373638Y270498D01*
X375224Y270814D01*
X376568Y271712D01*
X377466Y273056D01*
X377782Y274642D01*
X377466Y276228D01*
X376568Y277572D01*
X375224Y278470D01*
X373638Y278786D01*
X372052Y278470D01*
X370935Y277724D01*
X358903D01*
X358896Y277725D01*
X343896D01*
X343370Y277621D01*
X342621Y278093D01*
X341847Y278867D01*
X341375Y279616D01*
X341479Y280142D01*
Y293867D01*
X350093Y302480D01*
X351474D01*
X351897Y302396D01*
X353521D01*
X353686Y302149D01*
X355030Y301251D01*
X356616Y300936D01*
X358202Y301251D01*
X359546Y302149D01*
X360444Y303494D01*
X360760Y305079D01*
X361195Y305645D01*
X364568Y305864D01*
X376861Y293571D01*
X375241Y291598D01*
X375224Y291610D01*
X373638Y291926D01*
X372052Y291610D01*
X370708Y290712D01*
X369810Y289368D01*
X369494Y287782D01*
X369810Y286196D01*
X370708Y284852D01*
X372052Y283954D01*
X373638Y283638D01*
X375224Y283954D01*
X376568Y284852D01*
X377466Y286196D01*
X377782Y287782D01*
X377466Y289368D01*
X377454Y289385D01*
X379427Y291004D01*
X391326Y279106D01*
X390593Y276380D01*
X390518Y276322D01*
X389246Y275472D01*
X388348Y274128D01*
X388086Y272810D01*
X382999Y267724D01*
X358903D01*
X358896Y267725D01*
X343896D01*
X342716Y267491D01*
X341716Y266822D01*
X341048Y265822D01*
X340813Y264642D01*
X341048Y263462D01*
X341716Y262462D01*
Y261822D01*
X341048Y260822D01*
X340813Y259642D01*
X341048Y258462D01*
X341716Y257462D01*
Y256822D01*
X341048Y255822D01*
X340813Y254642D01*
X341048Y253462D01*
X341716Y252462D01*
Y251822D01*
X341048Y250822D01*
X340813Y249642D01*
X341048Y248462D01*
X341716Y247462D01*
Y246822D01*
X341048Y245822D01*
X340813Y244642D01*
X341048Y243462D01*
X341716Y242462D01*
Y241822D01*
X341048Y240822D01*
X340813Y239642D01*
X341048Y238462D01*
X341716Y237462D01*
Y236822D01*
X341048Y235822D01*
X340813Y234642D01*
X341048Y233462D01*
X341716Y232462D01*
Y231822D01*
X341048Y230822D01*
X340813Y229642D01*
X341048Y228462D01*
X341716Y227462D01*
Y226822D01*
X341048Y225822D01*
X340813Y224642D01*
X341048Y223462D01*
X341716Y222462D01*
Y221822D01*
X341048Y220822D01*
X340813Y219642D01*
X340917Y219116D01*
X340445Y218368D01*
X339670Y217593D01*
X338922Y217121D01*
X338396Y217225D01*
X337216Y216991D01*
X336216Y216322D01*
X335547Y215322D01*
X335313Y214142D01*
Y199142D01*
X335314Y199135D01*
Y186345D01*
X334568Y185228D01*
X334252Y183642D01*
X334568Y182056D01*
X335466Y180712D01*
X336810Y179814D01*
X338396Y179498D01*
X339982Y179814D01*
X341326Y180712D01*
X342224Y182056D01*
X342539Y183642D01*
X342224Y185228D01*
X341478Y186345D01*
Y199135D01*
X341479Y199142D01*
Y214142D01*
X341375Y214668D01*
X341847Y215417D01*
X342621Y216191D01*
X343370Y216663D01*
X343896Y216559D01*
X358403D01*
X381169Y193793D01*
Y46787D01*
X381404Y45608D01*
X382072Y44608D01*
X410571Y16109D01*
X411571Y15441D01*
X412750Y15206D01*
X457818D01*
X458997Y15441D01*
X459997Y16109D01*
X471154Y27266D01*
X479844D01*
Y28593D01*
X491981D01*
X495427Y25146D01*
X508381D01*
X512953Y29718D01*
Y38862D01*
X508381Y43434D01*
X495427D01*
X491981Y39987D01*
X479844D01*
Y41314D01*
X466796D01*
Y31624D01*
X456541Y21370D01*
X441961D01*
X441365Y22025D01*
X440320Y23910D01*
X440516Y24892D01*
X440200Y26478D01*
X439302Y27822D01*
X437958Y28720D01*
X436372Y29036D01*
X434786Y28720D01*
X433442Y27822D01*
X432544Y26478D01*
X432228Y24892D01*
X432424Y23910D01*
X431379Y22025D01*
X430783Y21370D01*
X414026D01*
X387333Y48063D01*
Y63968D01*
X389680Y64940D01*
X412069Y42550D01*
X413069Y41882D01*
X414249Y41648D01*
X458859D01*
X460039Y41882D01*
X461039Y42550D01*
X471154Y52666D01*
X479844D01*
Y53993D01*
X491981D01*
X495427Y50546D01*
X508381D01*
X512953Y55118D01*
Y64262D01*
X508381Y68834D01*
X495427D01*
X491981Y65388D01*
X479844D01*
Y66714D01*
X466796D01*
Y57024D01*
X457583Y47811D01*
X442424D01*
X440516Y50292D01*
X440200Y51878D01*
X439302Y53222D01*
X437958Y54120D01*
X436372Y54436D01*
X434786Y54120D01*
X433442Y53222D01*
X432544Y51878D01*
X432228Y50292D01*
X430320Y47811D01*
X415525D01*
X391854Y71482D01*
Y82307D01*
X394201Y83279D01*
X410317Y67163D01*
X411317Y66495D01*
X412496Y66260D01*
X458072D01*
X459251Y66495D01*
X460251Y67163D01*
X471154Y78066D01*
X479844D01*
Y79392D01*
X491981D01*
X495427Y75946D01*
X508381D01*
X512953Y80518D01*
Y89662D01*
X508381Y94234D01*
X495427D01*
X491981Y90787D01*
X479844D01*
Y92114D01*
X466796D01*
Y82424D01*
X456796Y72424D01*
X442131D01*
X441642Y72850D01*
X440371Y74964D01*
X440516Y75692D01*
X440200Y77278D01*
X439302Y78622D01*
X437958Y79520D01*
X436372Y79836D01*
X434786Y79520D01*
X433442Y78622D01*
X432544Y77278D01*
X432228Y75692D01*
X432373Y74964D01*
X431102Y72850D01*
X430613Y72424D01*
X413773D01*
X396375Y89821D01*
Y110806D01*
X398722Y111778D01*
X417149Y93350D01*
X418149Y92682D01*
X419329Y92448D01*
X458859D01*
X460039Y92682D01*
X461039Y93350D01*
X471154Y103466D01*
X479844D01*
Y104792D01*
X491981D01*
X495427Y101346D01*
X508381D01*
X512953Y105918D01*
Y115062D01*
X508381Y119634D01*
X495427D01*
X491981Y116187D01*
X479844D01*
Y117514D01*
X466796D01*
Y107824D01*
X457583Y98611D01*
X442424D01*
X440516Y101092D01*
X440200Y102678D01*
X439302Y104022D01*
X437958Y104920D01*
X436372Y105236D01*
X434786Y104920D01*
X433442Y104022D01*
X432544Y102678D01*
X432228Y101092D01*
X430320Y98611D01*
X420605D01*
X400897Y118320D01*
Y134224D01*
X403243Y135196D01*
X420477Y117963D01*
X421477Y117295D01*
X422656Y117060D01*
X458072D01*
X459251Y117295D01*
X460251Y117963D01*
X471154Y128866D01*
X479844D01*
Y130192D01*
X491981D01*
X495427Y126746D01*
X508381D01*
X512953Y131318D01*
Y140462D01*
X508381Y145034D01*
X495427D01*
X491981Y141587D01*
X479844D01*
Y142914D01*
X466796D01*
Y133224D01*
X456796Y123224D01*
X442131D01*
X441642Y123650D01*
X440371Y125764D01*
X440516Y126492D01*
X440200Y128078D01*
X439302Y129422D01*
X437958Y130320D01*
X436372Y130636D01*
X434786Y130320D01*
X433442Y129422D01*
X432544Y128078D01*
X432228Y126492D01*
X432373Y125764D01*
X431102Y123650D01*
X430613Y123224D01*
X423932D01*
X405418Y141739D01*
Y152563D01*
X407765Y153535D01*
X417937Y143363D01*
X418937Y142695D01*
X420116Y142460D01*
X458072D01*
X459251Y142695D01*
X460251Y143363D01*
X471154Y154266D01*
X479844D01*
Y155592D01*
X491981D01*
X495427Y152146D01*
X508381D01*
X512953Y156718D01*
Y165862D01*
X508381Y170434D01*
X495427D01*
X491981Y166987D01*
X479844D01*
Y168314D01*
X466796D01*
Y158624D01*
X456796Y148624D01*
X442131D01*
X441642Y149050D01*
X440371Y151164D01*
X440516Y151892D01*
X440200Y153478D01*
X439302Y154822D01*
X437958Y155720D01*
X436372Y156036D01*
X434786Y155720D01*
X433442Y154822D01*
X432544Y153478D01*
X432228Y151892D01*
X432373Y151164D01*
X431102Y149050D01*
X430613Y148624D01*
X421393D01*
X410498Y159518D01*
Y177963D01*
X412845Y178935D01*
X423017Y168763D01*
X424017Y168095D01*
X425196Y167860D01*
X458072D01*
X459251Y168095D01*
X460251Y168763D01*
X471154Y179666D01*
X479844D01*
Y180993D01*
X491981D01*
X495427Y177546D01*
X508381D01*
X512953Y182118D01*
Y191262D01*
X508381Y195834D01*
X495427D01*
X491981Y192388D01*
X479844D01*
Y193714D01*
X466796D01*
Y184024D01*
X456796Y174024D01*
X442131D01*
X441642Y174450D01*
X440371Y176564D01*
X440516Y177292D01*
X440200Y178878D01*
X439302Y180222D01*
X437958Y181120D01*
X436372Y181436D01*
X434786Y181120D01*
X433442Y180222D01*
X432544Y178878D01*
X432228Y177292D01*
X432373Y176564D01*
X431102Y174450D01*
X430613Y174024D01*
X426473D01*
X415578Y184918D01*
Y200823D01*
X417924Y201795D01*
X424769Y194950D01*
X425769Y194282D01*
X426949Y194048D01*
X458859D01*
X460039Y194282D01*
X461039Y194950D01*
X471154Y205066D01*
X479844D01*
Y206392D01*
X491981D01*
X495427Y202946D01*
X508381D01*
X512953Y207518D01*
Y216662D01*
X508381Y221234D01*
X495427D01*
X491981Y217787D01*
X479844D01*
Y219114D01*
X466796D01*
Y209424D01*
X457583Y200211D01*
X442424D01*
X440516Y202692D01*
X440200Y204278D01*
X439302Y205622D01*
X437958Y206520D01*
X436372Y206836D01*
X434786Y206520D01*
X433442Y205622D01*
X432544Y204278D01*
X432228Y202692D01*
X430609Y200588D01*
X427961Y200476D01*
X412316Y216120D01*
X413368Y218660D01*
X458072D01*
X459251Y218895D01*
X460251Y219563D01*
X471154Y230466D01*
X479844D01*
Y231793D01*
X491981D01*
X495427Y228346D01*
X508381D01*
X512953Y232918D01*
Y242062D01*
X508381Y246634D01*
X495427D01*
X491981Y243188D01*
X479844D01*
Y244514D01*
X466796D01*
Y234824D01*
X456796Y224824D01*
X442131D01*
X441642Y225250D01*
X440371Y227364D01*
X440516Y228092D01*
X440200Y229678D01*
X439302Y231022D01*
X437958Y231920D01*
X436372Y232236D01*
X434786Y231920D01*
X433442Y231022D01*
X432544Y229678D01*
X432228Y228092D01*
X432373Y227364D01*
X431102Y225250D01*
X430613Y224824D01*
X411232D01*
X376843Y259214D01*
X377815Y261560D01*
X384276D01*
X385455Y261795D01*
X386455Y262463D01*
X392444Y268452D01*
X393762Y268714D01*
X395106Y269612D01*
X395956Y270884D01*
X396014Y270959D01*
X398740Y271692D01*
X425469Y244963D01*
X426469Y244295D01*
X427648Y244060D01*
X458072D01*
X459251Y244295D01*
X460251Y244963D01*
X471154Y255866D01*
X479844D01*
Y257192D01*
X491981D01*
X495427Y253746D01*
X508381D01*
X512953Y258318D01*
Y267462D01*
X508381Y272034D01*
X495427D01*
X491981Y268587D01*
X479844D01*
Y269914D01*
X466796D01*
Y260224D01*
X456796Y250224D01*
X442131D01*
X441642Y250650D01*
X440371Y252764D01*
X440516Y253492D01*
X440200Y255078D01*
X439302Y256422D01*
X437958Y257320D01*
X436372Y257636D01*
X434786Y257320D01*
X433442Y256422D01*
X432544Y255078D01*
X432228Y253492D01*
X432331Y252975D01*
X430875Y250782D01*
X428699Y250450D01*
X412228Y266920D01*
X413280Y269460D01*
X458072D01*
X459251Y269695D01*
X460251Y270363D01*
X471154Y281266D01*
X479844D01*
Y282593D01*
X491981D01*
X495427Y279146D01*
X508381D01*
X512953Y283718D01*
Y292862D01*
X508381Y297434D01*
X495427D01*
X491981Y293988D01*
X479844D01*
Y295314D01*
X466796D01*
Y285624D01*
X456796Y275624D01*
X442131D01*
X441642Y276050D01*
X440371Y278164D01*
X440516Y278892D01*
X440200Y280478D01*
X439302Y281822D01*
X437958Y282720D01*
X436372Y283036D01*
X434786Y282720D01*
X433442Y281822D01*
X432544Y280478D01*
X432228Y278892D01*
X432373Y278164D01*
X431102Y276050D01*
X430613Y275624D01*
X411233D01*
X394536Y292320D01*
X395588Y294860D01*
X458072D01*
X459251Y295095D01*
X460251Y295763D01*
X471154Y306666D01*
X479844D01*
Y307992D01*
X491981D01*
X495427Y304546D01*
X508381D01*
X512953Y309118D01*
Y318262D01*
X508381Y322834D01*
X495427D01*
X491981Y319387D01*
X479844D01*
Y320714D01*
X466796D01*
Y311024D01*
X456796Y301024D01*
X442131D01*
X441642Y301450D01*
X440371Y303564D01*
X440516Y304292D01*
X440200Y305878D01*
X439302Y307222D01*
X437958Y308120D01*
X436372Y308436D01*
X434786Y308120D01*
X433442Y307222D01*
X432544Y305878D01*
X432228Y304292D01*
X432373Y303564D01*
X431102Y301450D01*
X430613Y301024D01*
X393453D01*
X375699Y318777D01*
X376671Y321124D01*
X400026D01*
X400409Y321048D01*
X458859D01*
X460039Y321282D01*
X461039Y321950D01*
X471154Y332066D01*
X479844D01*
Y333392D01*
X491981D01*
X495427Y329946D01*
X508381D01*
X512953Y334518D01*
Y343662D01*
X508381Y348234D01*
X495427D01*
X491981Y344787D01*
X479844D01*
Y346114D01*
X466796D01*
Y336424D01*
X457583Y327211D01*
X442424D01*
X440516Y329692D01*
X440200Y331278D01*
X439302Y332622D01*
X437958Y333520D01*
X436372Y333836D01*
X434786Y333520D01*
X433442Y332622D01*
X432544Y331278D01*
X432228Y329692D01*
X430320Y327211D01*
X400716D01*
X400332Y327287D01*
X383478D01*
X382506Y329634D01*
X397403Y344531D01*
X456943D01*
X458122Y344765D01*
X459122Y345433D01*
X471154Y357466D01*
X479844D01*
Y358792D01*
X491981D01*
X495427Y355346D01*
X508381D01*
X512953Y359918D01*
Y369062D01*
X508381Y373634D01*
X495427D01*
X491981Y370187D01*
X479844D01*
Y371514D01*
X466796D01*
Y361824D01*
X455666Y350694D01*
X441329D01*
X440019Y353234D01*
X440200Y353506D01*
X440516Y355092D01*
X440200Y356678D01*
X439302Y358022D01*
X437958Y358920D01*
X436372Y359236D01*
X434786Y358920D01*
X433442Y358022D01*
X432544Y356678D01*
X432228Y355092D01*
X432544Y353506D01*
X432725Y353234D01*
X431414Y350694D01*
X400395D01*
X399423Y353041D01*
X416312Y369931D01*
X456943D01*
X458122Y370165D01*
X459122Y370833D01*
X471154Y382866D01*
X479844D01*
Y384193D01*
X491981D01*
X495427Y380746D01*
X508381D01*
X512953Y385318D01*
Y394462D01*
X508381Y399034D01*
X495427D01*
X491981Y395588D01*
X479844D01*
Y396914D01*
X466796D01*
Y387224D01*
X455666Y376094D01*
X441329D01*
X440019Y378634D01*
X440200Y378906D01*
X440516Y380492D01*
X440200Y382078D01*
X439302Y383422D01*
X437958Y384320D01*
X436372Y384636D01*
X434786Y384320D01*
X433442Y383422D01*
X432544Y382078D01*
X432228Y380492D01*
X432544Y378906D01*
X432725Y378634D01*
X431414Y376094D01*
X415036D01*
X413857Y375860D01*
X412857Y375192D01*
X373995Y336330D01*
X338136D01*
X336957Y336095D01*
X335957Y335427D01*
X315061Y314531D01*
X314050Y314622D01*
X312136Y315198D01*
X311526Y316112D01*
X310182Y317010D01*
X308913Y317263D01*
X308273Y318339D01*
X307819Y319761D01*
X383389Y395331D01*
X456943D01*
X458122Y395565D01*
X459122Y396233D01*
X471154Y408266D01*
X479844D01*
Y409593D01*
X491981D01*
X495427Y406146D01*
X508381D01*
X512953Y410718D01*
Y419862D01*
X508381Y424434D01*
D02*
G37*
G36*
X269028Y449424D02*
X252980D01*
Y430376D01*
X255307D01*
Y424532D01*
X252980D01*
Y405484D01*
X269028D01*
Y424532D01*
X266702D01*
Y430376D01*
X269028D01*
Y449424D01*
D02*
G37*
G36*
X248666Y380722D02*
X246963Y380498D01*
X245376Y379841D01*
X245030Y379575D01*
X242490Y380666D01*
Y380666D01*
X229442D01*
Y367618D01*
X242490D01*
Y367618D01*
X245030Y368709D01*
X245376Y368443D01*
X246963Y367786D01*
X248666Y367562D01*
X249719Y367700D01*
X291566Y325854D01*
X291828Y324536D01*
X292726Y323192D01*
X294070Y322294D01*
X295656Y321978D01*
X297242Y322294D01*
X298586Y323192D01*
X299484Y324536D01*
X299800Y326122D01*
X299484Y327708D01*
X298586Y329052D01*
X297242Y329950D01*
X295924Y330212D01*
X254634Y371502D01*
X255022Y372439D01*
X255246Y374142D01*
X255022Y375845D01*
X254365Y377432D01*
X253319Y378795D01*
X251956Y379841D01*
X250369Y380498D01*
X248666Y380722D01*
D02*
G37*
G36*
X188028Y216099D02*
X185215Y215729D01*
X182595Y214643D01*
X180344Y212916D01*
X178617Y210665D01*
X177531Y208044D01*
X177161Y205232D01*
X177531Y202419D01*
X178617Y199799D01*
X180344Y197548D01*
X182595Y195821D01*
X185215Y194735D01*
X188028Y194365D01*
X190840Y194735D01*
X193461Y195821D01*
X195712Y197548D01*
X197439Y199799D01*
X198525Y202419D01*
X198895Y205232D01*
X198525Y208044D01*
X197439Y210665D01*
X195712Y212916D01*
X193461Y214643D01*
X190840Y215729D01*
X188028Y216099D01*
D02*
G37*
G36*
X351286Y187786D02*
X349700Y187470D01*
X348356Y186572D01*
X347458Y185228D01*
X347142Y183642D01*
X347458Y182056D01*
X348356Y180712D01*
X349700Y179814D01*
X351286Y179498D01*
X352872Y179814D01*
X354216Y180712D01*
X355114Y182056D01*
X355430Y183642D01*
X355114Y185228D01*
X354216Y186572D01*
X352872Y187470D01*
X351286Y187786D01*
D02*
G37*
%LPD*%
G36*
X279170Y216191D02*
X279945Y215417D01*
X280417Y214668D01*
X280313Y214142D01*
Y199142D01*
X280314Y199135D01*
Y189684D01*
X280549Y188505D01*
X280738Y188222D01*
Y75160D01*
X266876Y61299D01*
X259818D01*
X258846Y63645D01*
X265332Y70132D01*
X266000Y71132D01*
X266235Y72311D01*
Y194672D01*
X266000Y195852D01*
X265332Y196851D01*
X259473Y202710D01*
Y216560D01*
X262889D01*
X262896Y216559D01*
X277896D01*
X278422Y216663D01*
X279170Y216191D01*
D02*
G37*
D17*
X283396Y287642D02*
D03*
X338396Y206642D02*
D03*
X288396Y287642D02*
D03*
X333396Y206642D02*
D03*
X283396D02*
D03*
X288396D02*
D03*
X293396D02*
D03*
X298396D02*
D03*
X303396D02*
D03*
X308396D02*
D03*
X313396D02*
D03*
X318396D02*
D03*
X323396D02*
D03*
X328396D02*
D03*
X338396Y287642D02*
D03*
X333396D02*
D03*
X328396D02*
D03*
X323396D02*
D03*
X318396D02*
D03*
X313396D02*
D03*
X308396D02*
D03*
X303396D02*
D03*
X298396D02*
D03*
X293396D02*
D03*
D18*
X351396Y274642D02*
D03*
X270396Y234642D02*
D03*
X351396Y269642D02*
D03*
X270396Y239642D02*
D03*
Y244642D02*
D03*
Y254642D02*
D03*
Y274642D02*
D03*
Y269642D02*
D03*
Y264642D02*
D03*
Y259642D02*
D03*
Y249642D02*
D03*
Y229642D02*
D03*
Y224642D02*
D03*
Y219642D02*
D03*
X351396D02*
D03*
Y224642D02*
D03*
Y229642D02*
D03*
Y234642D02*
D03*
Y239642D02*
D03*
Y244642D02*
D03*
Y249642D02*
D03*
Y254642D02*
D03*
Y259642D02*
D03*
Y264642D02*
D03*
D19*
X242004Y439900D02*
D03*
Y415008D02*
D03*
X261004D02*
D03*
Y439900D02*
D03*
D20*
X190036Y420088D02*
D03*
D21*
X132036D02*
D03*
Y443088D02*
D03*
Y397088D02*
D03*
D22*
X100882Y415732D02*
D03*
Y442732D02*
D03*
X79292D02*
D03*
X57702D02*
D03*
X79292Y415732D02*
D03*
X57702Y415732D02*
D03*
D23*
X456320Y339090D02*
D03*
Y389890D02*
D03*
Y364490D02*
D03*
Y415290D02*
D03*
Y262890D02*
D03*
Y237490D02*
D03*
Y313690D02*
D03*
Y288290D02*
D03*
Y186690D02*
D03*
Y161290D02*
D03*
Y212090D02*
D03*
Y110490D02*
D03*
Y85090D02*
D03*
Y135890D02*
D03*
Y34290D02*
D03*
Y59690D02*
D03*
X75556Y363474D02*
D03*
Y236474D02*
D03*
Y312674D02*
D03*
Y338074D02*
D03*
Y261874D02*
D03*
Y287274D02*
D03*
Y185674D02*
D03*
Y160274D02*
D03*
Y211074D02*
D03*
Y109474D02*
D03*
Y134874D02*
D03*
Y58674D02*
D03*
Y84074D02*
D03*
Y33274D02*
D03*
X473320Y313690D02*
D03*
X58556Y84074D02*
D03*
Y134874D02*
D03*
Y236474D02*
D03*
X473320Y85090D02*
D03*
Y34290D02*
D03*
X58556Y33274D02*
D03*
Y160274D02*
D03*
X473320Y364490D02*
D03*
Y212090D02*
D03*
X58556Y58674D02*
D03*
Y185674D02*
D03*
X473320Y262890D02*
D03*
X58556Y109474D02*
D03*
X473320Y415290D02*
D03*
Y288290D02*
D03*
Y135890D02*
D03*
X58556Y261874D02*
D03*
Y312674D02*
D03*
Y338074D02*
D03*
Y363474D02*
D03*
X473320Y339090D02*
D03*
X58556Y211074D02*
D03*
X473320Y389890D02*
D03*
Y237490D02*
D03*
Y161290D02*
D03*
Y110490D02*
D03*
Y59690D02*
D03*
Y186690D02*
D03*
X58556Y287274D02*
D03*
D24*
X224588Y243332D02*
D03*
X222588Y192532D02*
D03*
X214588Y243332D02*
D03*
X232588Y192532D02*
D03*
D25*
Y229432D02*
D03*
X214588Y206432D02*
D03*
Y229432D02*
D03*
X232588Y206432D02*
D03*
D26*
Y180226D02*
D03*
X247588D02*
D03*
D47*
X457818Y18288D02*
X473320Y33790D01*
X412750Y18288D02*
X457818D01*
X384251Y46787D02*
X412750Y18288D01*
X212859Y67259D02*
X220657D01*
X147625Y132493D02*
Y140292D01*
Y132493D02*
X212859Y67259D01*
X214732Y71780D02*
X249834D01*
X152146Y134366D02*
Y286512D01*
Y134366D02*
X214732Y71780D01*
X220657Y67259D02*
X251707D01*
X147625Y140292D02*
Y263093D01*
X268153Y58217D02*
X283820Y73884D01*
X142697Y130773D02*
X210732Y62738D01*
X275644Y40132D02*
X303396Y67884D01*
X210732Y62738D02*
X253580D01*
X119072Y122429D02*
X201368Y40132D01*
X275644D01*
X138176Y128900D02*
X208859Y58217D01*
X279389Y31090D02*
X313396Y65097D01*
X270025Y53696D02*
X288396Y72066D01*
X196836Y31090D02*
X279389D01*
X199496Y35611D02*
X277516D01*
X203241Y44653D02*
X273771D01*
X135329Y92597D02*
X196836Y31090D01*
X271898Y49174D02*
X293396Y70672D01*
X249834Y71780D02*
X254111Y76056D01*
X253580Y62738D02*
X263153Y72311D01*
X281262Y26568D02*
X318396Y63703D01*
X128114Y126174D02*
X205114Y49174D01*
X193091Y22047D02*
X283135D01*
X123593Y124301D02*
X203241Y44653D01*
X64308Y17526D02*
X285007D01*
X133096Y127586D02*
X206987Y53696D01*
X117110Y117997D02*
X199496Y35611D01*
X58556Y23278D02*
X64308Y17526D01*
X273771Y44653D02*
X298396Y69278D01*
X208859Y58217D02*
X268153D01*
X154335Y67197D02*
X194964Y26568D01*
X206987Y53696D02*
X270025D01*
X285007Y17526D02*
X328396Y60915D01*
X205114Y49174D02*
X271898D01*
X251707Y67259D02*
X258632Y74184D01*
X283135Y22047D02*
X323396Y62309D01*
X194964Y26568D02*
X281262D01*
X277516Y35611D02*
X308396Y66491D01*
X173341Y41797D02*
X193091Y22047D01*
X258632Y74184D02*
Y84642D01*
X256392Y201434D02*
Y217886D01*
X263153Y72311D02*
Y194672D01*
X256392Y201434D02*
X263153Y194672D01*
X254111Y76056D02*
Y190927D01*
X258632Y84642D02*
Y192799D01*
X114921Y295797D02*
X147625Y263093D01*
X133096Y127586D02*
Y203962D01*
X128114Y126174D02*
Y183544D01*
X119072Y122429D02*
Y139246D01*
X74933Y67197D02*
X154335D01*
X138176Y128900D02*
Y221742D01*
X74933Y41797D02*
X173341D01*
X142697Y130773D02*
Y138587D01*
X123593Y124301D02*
Y162665D01*
X74933Y92597D02*
X135329D01*
X74933Y117997D02*
X117110D01*
X251870Y199561D02*
X258632Y192799D01*
X247349Y197688D02*
X254111Y190927D01*
X251870Y199561D02*
Y219759D01*
X247349Y197688D02*
Y221632D01*
X255359Y229642D01*
X251870Y219759D02*
X256753Y224642D01*
X255359Y229642D02*
X270396D01*
X256392Y217886D02*
X258147Y219642D01*
X270396D01*
X256753Y224642D02*
X270396D01*
X412496Y183642D02*
Y205188D01*
X425196Y170942D02*
X458072D01*
X412496Y183642D02*
X425196Y170942D01*
X377241Y328727D02*
X396127Y347613D01*
X340009Y328727D02*
X377241D01*
X396127Y347613D02*
X456943D01*
X338136Y333248D02*
X375271D01*
X415036Y373013D02*
X456943D01*
X375271Y333248D02*
X415036Y373013D01*
X74933Y346597D02*
X254621D01*
X293396Y307822D01*
X117461Y321197D02*
X152146Y286512D01*
X312166Y361442D02*
Y374142D01*
Y361442D02*
X317246Y356362D01*
X326136D01*
X299466Y362229D02*
Y374142D01*
Y362229D02*
X315976Y345719D01*
X248666Y373112D02*
Y374142D01*
Y373112D02*
X295656Y326122D01*
X384276Y264642D02*
X392176Y272542D01*
X351396Y264642D02*
X384276D01*
X427648Y247142D02*
X458072D01*
X367335Y315163D02*
X409956Y272542D01*
X364148Y310642D02*
X427648Y247142D01*
X347500Y310642D02*
X364148D01*
X409956Y272542D02*
X458072D01*
X345627Y315163D02*
X367335D01*
X370434Y319684D02*
X392176Y297942D01*
X458072D01*
X341882Y324206D02*
X400332D01*
X400409Y324129D02*
X458859D01*
X318396Y300720D02*
X341882Y324206D01*
X400332D02*
X400409Y324129D01*
X369436Y254642D02*
X426949Y197129D01*
X372056Y259642D02*
X409956Y221742D01*
X351396Y254642D02*
X369436D01*
X351396Y259642D02*
X372056D01*
X351396Y224641D02*
X361073D01*
X363861Y234641D02*
X397815Y200687D01*
X358898Y219641D02*
X359680D01*
X351396Y234641D02*
X363861D01*
X351396Y239642D02*
X365254D01*
X368042Y249642D02*
X412496Y205188D01*
X351396Y244642D02*
X366648D01*
X362467Y229641D02*
X393294Y198815D01*
X351396Y249642D02*
X368042D01*
X366648Y244642D02*
X407416Y203874D01*
X351396Y219642D02*
X358897D01*
X361073Y224641D02*
X388772Y196942D01*
X351396Y229641D02*
X362467D01*
X365254Y239642D02*
X402336Y202560D01*
X359680Y219641D02*
X384251Y195069D01*
X358897Y219642D02*
X358898Y219641D01*
X382113Y398413D02*
X456943D01*
X298396Y314696D02*
X382113Y398413D01*
X303396Y307982D02*
X308596Y313182D01*
X303396Y287642D02*
Y307982D01*
X298396Y287642D02*
Y314696D01*
X293396Y287642D02*
Y307822D01*
X308396Y287642D02*
Y303508D01*
X313396Y302114D02*
X340009Y328727D01*
X313396Y287642D02*
Y302114D01*
X323396Y287642D02*
Y299326D01*
X328396Y287642D02*
Y297932D01*
X308396Y303508D02*
X338136Y333248D01*
X318396Y287642D02*
Y300720D01*
X328396Y297932D02*
X345627Y315163D01*
X323396Y299326D02*
X343755Y319684D01*
X323396Y287642D02*
X323396Y287642D01*
X343755Y319684D02*
X370434D01*
X356217Y305478D02*
X356616Y305079D01*
X351897Y305478D02*
X356217D01*
X351813Y305562D02*
X351897Y305478D01*
X348816Y305562D02*
X351813D01*
X338396Y295142D02*
X348816Y305562D01*
X338396Y287642D02*
Y295142D01*
X458859Y324129D02*
X473320Y338590D01*
X333396Y296538D02*
X347500Y310642D01*
X283396Y287642D02*
Y308102D01*
X351718Y274642D02*
X373638D01*
X338396Y183642D02*
Y206642D01*
X249178Y234642D02*
X270396D01*
X332849Y269643D02*
X351395D01*
X351396Y269642D01*
X288396Y269240D02*
Y287642D01*
X236588Y242679D02*
X236986Y243078D01*
X270396Y239642D02*
X292358D01*
X236732Y243332D02*
X236986Y243078D01*
X328680Y222239D02*
X333395Y217523D01*
Y206642D02*
Y217523D01*
X328680Y222239D02*
Y222758D01*
X333395Y206642D02*
X333396Y206642D01*
X230636Y243332D02*
X232414Y241554D01*
X233540Y242679D02*
X236588D01*
X224588Y243332D02*
X230636D01*
X232414Y241554D02*
X233540Y242679D01*
X232414Y229606D02*
X232588Y229432D01*
X232414Y229606D02*
Y241554D01*
X232588Y228432D02*
Y229432D01*
X218589Y214433D02*
X232588Y228432D01*
X214588Y206432D02*
X218589Y210433D01*
Y214433D01*
X214588Y205432D02*
Y206432D01*
X207159Y198002D02*
X214588Y205432D01*
X206760Y192532D02*
X222588D01*
X207159Y192930D02*
Y198002D01*
X222588Y192532D02*
X222588Y192532D01*
X206760Y192532D02*
X207159Y192930D01*
X333396Y287642D02*
Y296538D01*
X333396Y287642D02*
X333396Y287642D01*
X456943Y347613D02*
X473320Y363990D01*
Y338590D02*
Y339090D01*
X388772Y70206D02*
Y196942D01*
X393294Y88544D02*
Y198815D01*
X402336Y140462D02*
Y202560D01*
X409956Y221742D02*
X458072D01*
X407416Y158242D02*
Y203874D01*
X397815Y117043D02*
Y200687D01*
X473320Y236990D02*
Y237490D01*
Y262390D02*
Y262890D01*
X458072Y247142D02*
X473320Y262390D01*
X458072Y221742D02*
X473320Y236990D01*
X426949Y197129D02*
X458859D01*
X458072Y297942D02*
X473320Y313190D01*
X328396Y287642D02*
X328396Y287642D01*
X458072Y272542D02*
X473320Y287790D01*
Y414790D02*
Y415290D01*
X456943Y398413D02*
X473320Y414790D01*
Y389390D02*
Y389890D01*
X456943Y373013D02*
X473320Y389390D01*
Y363990D02*
Y364490D01*
Y313190D02*
Y313690D01*
Y287790D02*
Y288290D01*
X258525Y249682D02*
X258565Y249643D01*
X270717D02*
X270718Y249642D01*
X247588Y179832D02*
Y190312D01*
X256132Y244642D02*
X270718D01*
X223588Y303282D02*
X236218D01*
X242828Y242062D02*
X250448Y249682D01*
X258525D01*
X217308Y254642D02*
X270718D01*
X223588Y272282D02*
X235424D01*
X253552Y242062D02*
X256132Y244642D01*
X242828Y195072D02*
Y242062D01*
X252988D02*
X253552D01*
X239018Y275082D02*
Y300482D01*
X249458Y264642D02*
X270718D01*
X242828Y195072D02*
X247588Y190312D01*
X239018Y275082D02*
X249458Y264642D01*
X248064Y259642D02*
X270718D01*
X258565Y249643D02*
X270717D01*
X235424Y272282D02*
X248064Y259642D01*
X214588Y251922D02*
X217308Y254642D01*
X214588Y243332D02*
Y251922D01*
X236218Y303282D02*
X239018Y300482D01*
X318396Y63703D02*
Y206642D01*
X58556Y83574D02*
Y84074D01*
Y83574D02*
X74933Y67197D01*
X308396Y66491D02*
Y206642D01*
X58556Y134374D02*
Y134874D01*
Y134374D02*
X74933Y117997D01*
X288396Y72066D02*
Y206642D01*
X115545Y221513D02*
X133096Y203962D01*
X58556Y235974D02*
Y236474D01*
Y235974D02*
X73017Y221513D01*
X115545D01*
X351396Y229642D02*
X351396Y229641D01*
X393294Y88544D02*
X412496Y69342D01*
X473320Y84590D02*
Y85090D01*
X458072Y69342D02*
X473320Y84590D01*
X412496Y69342D02*
X458072D01*
X384251Y46787D02*
Y195069D01*
X473320Y33790D02*
Y34290D01*
X328396Y60915D02*
Y206642D01*
X58556Y23278D02*
Y33274D01*
X303396Y67884D02*
Y206642D01*
X114921Y143397D02*
X119072Y139246D01*
X74933Y143397D02*
X114921D01*
X58556Y159774D02*
Y160274D01*
Y159774D02*
X74933Y143397D01*
X473320Y211590D02*
Y212090D01*
X458859Y197129D02*
X473320Y211590D01*
X323396Y62309D02*
Y206642D01*
X58556Y58174D02*
Y58674D01*
Y58174D02*
X74933Y41797D01*
X298396Y69278D02*
Y206642D01*
X117461Y168797D02*
X123593Y162665D01*
X74933Y168797D02*
X117461D01*
X58556Y185174D02*
Y185674D01*
Y185174D02*
X74933Y168797D01*
X313396Y65097D02*
Y206642D01*
X58556Y108974D02*
X74933Y92597D01*
X58556Y108974D02*
Y109474D01*
X402336Y140462D02*
X422656Y120142D01*
X458072D01*
X473320Y135390D02*
Y135890D01*
X458072Y120142D02*
X473320Y135390D01*
X283820Y73884D02*
Y189260D01*
X283396Y189684D02*
X283820Y189260D01*
X283396Y189684D02*
Y206642D01*
X113005Y246913D02*
X138176Y221742D01*
X58556Y261374D02*
Y261874D01*
X73017Y246913D02*
X113005D01*
X58556Y261374D02*
X73017Y246913D01*
X58556Y312174D02*
Y312674D01*
X74933Y295797D02*
X114921D01*
X58556Y312174D02*
X74933Y295797D01*
X58556Y337574D02*
Y338074D01*
X74933Y321197D02*
X117461D01*
X58556Y337574D02*
X74933Y321197D01*
X58556Y362974D02*
Y363474D01*
Y362974D02*
X74933Y346597D01*
X293396Y70672D02*
Y206642D01*
X115316Y196342D02*
X128114Y183544D01*
X98799Y196342D02*
X115316D01*
X58556Y210574D02*
Y211074D01*
X98570Y196113D02*
X98799Y196342D01*
X58556Y210574D02*
X73017Y196113D01*
X98570D01*
X473320Y160790D02*
Y161290D01*
X458072Y145542D02*
X473320Y160790D01*
X420116Y145542D02*
X458072D01*
X407416Y158242D02*
X420116Y145542D01*
X351396Y234642D02*
X351396Y234641D01*
X397815Y117043D02*
X419329Y95529D01*
X473320Y109990D02*
Y110490D01*
X458859Y95529D02*
X473320Y109990D01*
X419329Y95529D02*
X458859D01*
X351396Y224642D02*
X351396Y224641D01*
X388772Y70206D02*
X414249Y44729D01*
X473320Y59190D02*
Y59690D01*
X458859Y44729D02*
X473320Y59190D01*
X414249Y44729D02*
X458859D01*
X473320Y186190D02*
Y186690D01*
X458072Y170942D02*
X473320Y186190D01*
X142697Y138587D02*
X142697Y138587D01*
Y245161D01*
X117461Y270397D02*
X142697Y245161D01*
X58556Y286774D02*
Y287274D01*
X74933Y270397D02*
X117461D01*
X58556Y286774D02*
X74933Y270397D01*
D48*
X422910Y186690D02*
X457082D01*
X474082Y339090D02*
X501904D01*
X474082Y364490D02*
X501904D01*
X474082Y237490D02*
X501904D01*
X474082Y262890D02*
X501904D01*
X474082Y313690D02*
X501904D01*
X474082Y288290D02*
X501904D01*
X474082Y135890D02*
X501904D01*
X474082Y161290D02*
X501904D01*
X474082Y212090D02*
X501904D01*
X474082Y186690D02*
X501904D01*
X474082Y85090D02*
X501904D01*
X474082Y110490D02*
X501904D01*
X474082Y59690D02*
X501904D01*
X473320Y34290D02*
X501904D01*
X474082Y415290D02*
X501904D01*
X474082Y389890D02*
X501904D01*
X30734Y338074D02*
X58556D01*
X30734Y363474D02*
X58556D01*
X30734Y236474D02*
X58556D01*
X30734Y261874D02*
X58556D01*
X30734Y312674D02*
X58556D01*
X30734Y287274D02*
X58556D01*
X30734Y134874D02*
X58556D01*
X30734Y160274D02*
X58556D01*
X30734Y211074D02*
X58556D01*
X30734Y185674D02*
X58556D01*
X30734Y84074D02*
X58556D01*
X30734Y109474D02*
X58556D01*
X30734Y58674D02*
X58556D01*
X30734Y33274D02*
X58556D01*
X422910Y262890D02*
X457082D01*
X422910Y364490D02*
X457082D01*
X422910Y339090D02*
X457082D01*
X230930Y439900D02*
X242004D01*
X211372Y420342D02*
X230930Y439900D01*
X422910Y288290D02*
X457082D01*
X422910Y313690D02*
X457082D01*
X422910Y212090D02*
X457082D01*
X422910Y135890D02*
X457082D01*
X423139Y161290D02*
X457082D01*
X422910Y237490D02*
X457082D01*
X75556Y338074D02*
X109728D01*
X75556Y185674D02*
X109728D01*
X75556Y134874D02*
X109728D01*
X75556Y109474D02*
X109728D01*
X75556Y84074D02*
X109728D01*
X75556Y58674D02*
X109728D01*
X75556Y33274D02*
X109728D01*
X75556Y160274D02*
X109728D01*
X75556Y236474D02*
X109728D01*
X75556Y211074D02*
X109728D01*
X422910Y415290D02*
X457082D01*
X422910Y389890D02*
X457082D01*
X422910Y110490D02*
X457082D01*
X422910Y85090D02*
X457082D01*
X422910Y59690D02*
X457082D01*
X422910Y34290D02*
X457082D01*
X75556Y363474D02*
X109728D01*
X75556Y312674D02*
X109728D01*
X75556Y287274D02*
X109728D01*
X75556Y261874D02*
X109728D01*
X242004Y394790D02*
Y415008D01*
X188028Y154432D02*
X208352D01*
X261004Y415008D02*
Y439900D01*
D49*
X183222Y420342D02*
X211372D01*
X183222Y420342D02*
X183222Y420342D01*
X125222Y420342D02*
X183222D01*
X108445Y420295D02*
X125175D01*
X125222Y420342D01*
X96310Y415732D02*
X103882D01*
X108445Y420295D01*
X104031Y442881D02*
X124761D01*
X35858Y416532D02*
X36658Y415732D01*
X79292D01*
X87052Y397342D02*
X125222D01*
X79292Y402392D02*
X84202Y397482D01*
X86912D01*
X87052Y397342D01*
X79292Y402392D02*
Y415732D01*
D50*
X125222Y443342D02*
X125336Y443456D01*
X150412D01*
X103882Y442732D02*
X104031Y442881D01*
X57702Y442732D02*
X103882D01*
X57663Y442693D02*
X57702Y442732D01*
X38143Y442693D02*
X57663D01*
X37382Y441932D02*
X38143Y442693D01*
D51*
X214588Y229432D02*
Y243332D01*
X232588Y179832D02*
Y192532D01*
Y206432D01*
D52*
X299466Y374142D02*
D03*
X312166D02*
D03*
X286766D02*
D03*
X261366D02*
D03*
X248666D02*
D03*
D53*
X324866D02*
D03*
X235966D02*
D03*
D54*
X35858Y441932D02*
D03*
D55*
X188028Y154432D02*
D03*
D56*
Y205232D02*
D03*
D57*
X223198Y303282D02*
D03*
Y272282D02*
D03*
D58*
X501904Y313690D02*
D03*
Y85090D02*
D03*
Y34290D02*
D03*
Y364490D02*
D03*
Y212090D02*
D03*
Y262890D02*
D03*
Y415290D02*
D03*
Y288290D02*
D03*
Y135890D02*
D03*
Y339090D02*
D03*
Y389890D02*
D03*
Y237490D02*
D03*
Y161290D02*
D03*
Y110490D02*
D03*
Y59690D02*
D03*
Y186690D02*
D03*
D59*
X30734Y84074D02*
D03*
Y134874D02*
D03*
Y236474D02*
D03*
Y33274D02*
D03*
Y160274D02*
D03*
Y58674D02*
D03*
Y185674D02*
D03*
Y109474D02*
D03*
Y261874D02*
D03*
Y312674D02*
D03*
Y338074D02*
D03*
Y363474D02*
D03*
Y211074D02*
D03*
Y287274D02*
D03*
D60*
X35858Y416532D02*
D03*
D61*
X436372Y24892D02*
D03*
X422656Y186690D02*
D03*
X326136Y356362D02*
D03*
X392176Y272542D02*
D03*
X295656Y326122D02*
D03*
X308596Y313182D02*
D03*
X315976Y345719D02*
D03*
X356616Y305079D02*
D03*
X422656Y262890D02*
D03*
X436372Y253492D02*
D03*
Y355092D02*
D03*
X422656Y339090D02*
D03*
X436372Y278892D02*
D03*
Y329692D02*
D03*
Y228092D02*
D03*
Y405892D02*
D03*
Y202692D02*
D03*
X96266Y277876D02*
D03*
Y303276D02*
D03*
Y328676D02*
D03*
Y23876D02*
D03*
Y176276D02*
D03*
Y150876D02*
D03*
X95303Y124888D02*
D03*
X96266Y100076D02*
D03*
Y49276D02*
D03*
Y74676D02*
D03*
Y201676D02*
D03*
Y252476D02*
D03*
Y227076D02*
D03*
X436372Y380492D02*
D03*
Y304292D02*
D03*
Y177292D02*
D03*
Y151892D02*
D03*
Y126492D02*
D03*
Y101092D02*
D03*
Y75692D02*
D03*
Y50292D02*
D03*
X96266Y354076D02*
D03*
X373638Y287782D02*
D03*
Y274642D02*
D03*
X351286Y183642D02*
D03*
X338396D02*
D03*
X211372Y420342D02*
D03*
X283396Y308102D02*
D03*
X249178Y234642D02*
D03*
X422656Y288290D02*
D03*
Y313690D02*
D03*
Y212090D02*
D03*
Y135890D02*
D03*
X423139Y161290D02*
D03*
X109982Y185674D02*
D03*
Y134874D02*
D03*
Y84074D02*
D03*
Y58674D02*
D03*
Y33274D02*
D03*
Y287274D02*
D03*
Y261874D02*
D03*
Y236474D02*
D03*
Y109474D02*
D03*
X422656Y415290D02*
D03*
Y389890D02*
D03*
Y364490D02*
D03*
Y237490D02*
D03*
Y110490D02*
D03*
Y85090D02*
D03*
Y59690D02*
D03*
Y34290D02*
D03*
X109982Y363474D02*
D03*
Y338074D02*
D03*
Y312674D02*
D03*
Y211074D02*
D03*
Y160274D02*
D03*
X242004Y394790D02*
D03*
X332490Y269642D02*
D03*
X288396Y269240D02*
D03*
X292358Y239642D02*
D03*
X328680Y222758D02*
D03*
X150412Y443456D02*
D03*
X197870Y288290D02*
D03*
X236986Y243078D02*
D03*
X206760Y192532D02*
D03*
X208352Y154432D02*
D03*
X252988Y242062D02*
D03*
M02*
