G04*
G04 #@! TF.GenerationSoftware,Altium Limited,Altium Designer,26.3.0 (6)*
G04*
G04 Layer_Color=8421504*
%FSLAX44Y44*%
%MOMM*%
G71*
G04*
G04 #@! TF.SameCoordinates,B1B4E18B-4560-4E18-BF29-402D28114D08*
G04*
G04*
G04 #@! TF.FilePolarity,Positive*
G04*
G01*
G75*
%ADD17O,0.3000X1.8000*%
%ADD18O,1.8000X0.3000*%
%ADD19R,1.3000X1.6000*%
%ADD20R,2.2000X3.3000*%
%ADD21R,2.2000X1.0000*%
%ADD22R,1.7000X1.1000*%
%ADD23R,1.0000X1.1000*%
%ADD24R,0.6000X0.5000*%
%ADD25R,1.1000X1.3000*%
%ADD26R,0.7000X0.9000*%
D17*
X283396Y287642D02*
D03*
X338396Y206642D02*
D03*
X288396Y287642D02*
D03*
X333396Y206642D02*
D03*
X283396D02*
D03*
X288396D02*
D03*
X293396D02*
D03*
X298396D02*
D03*
X303396D02*
D03*
X308396D02*
D03*
X313396D02*
D03*
X318396D02*
D03*
X323396D02*
D03*
X328396D02*
D03*
X338396Y287642D02*
D03*
X333396D02*
D03*
X328396D02*
D03*
X323396D02*
D03*
X318396D02*
D03*
X313396D02*
D03*
X308396D02*
D03*
X303396D02*
D03*
X298396D02*
D03*
X293396D02*
D03*
D18*
X351396Y274642D02*
D03*
X270396Y234642D02*
D03*
X351396Y269642D02*
D03*
X270396Y239642D02*
D03*
Y244642D02*
D03*
Y254642D02*
D03*
Y274642D02*
D03*
Y269642D02*
D03*
Y264642D02*
D03*
Y259642D02*
D03*
Y249642D02*
D03*
Y229642D02*
D03*
Y224642D02*
D03*
Y219642D02*
D03*
X351396D02*
D03*
Y224642D02*
D03*
Y229642D02*
D03*
Y234642D02*
D03*
Y239642D02*
D03*
Y244642D02*
D03*
Y249642D02*
D03*
Y254642D02*
D03*
Y259642D02*
D03*
Y264642D02*
D03*
D19*
X242004Y439900D02*
D03*
Y415008D02*
D03*
X261004D02*
D03*
Y439900D02*
D03*
D20*
X190036Y420088D02*
D03*
D21*
X132036D02*
D03*
Y443088D02*
D03*
Y397088D02*
D03*
D22*
X100882Y415732D02*
D03*
Y442732D02*
D03*
X79292D02*
D03*
X57702D02*
D03*
X79292Y415732D02*
D03*
X57702Y415732D02*
D03*
D23*
X456320Y339090D02*
D03*
Y389890D02*
D03*
Y364490D02*
D03*
Y415290D02*
D03*
Y262890D02*
D03*
Y237490D02*
D03*
Y313690D02*
D03*
Y288290D02*
D03*
Y186690D02*
D03*
Y161290D02*
D03*
Y212090D02*
D03*
Y110490D02*
D03*
Y85090D02*
D03*
Y135890D02*
D03*
Y34290D02*
D03*
Y59690D02*
D03*
X75556Y363474D02*
D03*
Y236474D02*
D03*
Y312674D02*
D03*
Y338074D02*
D03*
Y261874D02*
D03*
Y287274D02*
D03*
Y185674D02*
D03*
Y160274D02*
D03*
Y211074D02*
D03*
Y109474D02*
D03*
Y134874D02*
D03*
Y58674D02*
D03*
Y84074D02*
D03*
Y33274D02*
D03*
X473320Y313690D02*
D03*
X58556Y84074D02*
D03*
Y134874D02*
D03*
Y236474D02*
D03*
X473320Y85090D02*
D03*
Y34290D02*
D03*
X58556Y33274D02*
D03*
Y160274D02*
D03*
X473320Y364490D02*
D03*
Y212090D02*
D03*
X58556Y58674D02*
D03*
Y185674D02*
D03*
X473320Y262890D02*
D03*
X58556Y109474D02*
D03*
X473320Y415290D02*
D03*
Y288290D02*
D03*
Y135890D02*
D03*
X58556Y261874D02*
D03*
Y312674D02*
D03*
Y338074D02*
D03*
Y363474D02*
D03*
X473320Y339090D02*
D03*
X58556Y211074D02*
D03*
X473320Y389890D02*
D03*
Y237490D02*
D03*
Y161290D02*
D03*
Y110490D02*
D03*
Y59690D02*
D03*
Y186690D02*
D03*
X58556Y287274D02*
D03*
D24*
X224588Y243332D02*
D03*
X222588Y192532D02*
D03*
X214588Y243332D02*
D03*
X232588Y192532D02*
D03*
D25*
Y229432D02*
D03*
X214588Y206432D02*
D03*
Y229432D02*
D03*
X232588Y206432D02*
D03*
D26*
Y180226D02*
D03*
X247588D02*
D03*
M02*
